%
M48
M72
T01C0.01378
T02C0.01600
T03C0.03000
T04C0.03200
T05C0.04000
T06C0.11811
%
T01
X88278Y76300
X88278Y86300
X88278Y96300
X60778Y96300
X60778Y126300
X48278Y138800
X13278Y161300
X90778Y136300
X98278Y163800
X115778Y176300
X160778Y161300
X183278Y148800
X190778Y156300
X195778Y148989
X215778Y136300
X218278Y126300
X190778Y103800
X190778Y91300
X178278Y83800
X180778Y76300
X185778Y76300
X180778Y66300
X175778Y61300
X180778Y58800
X170778Y66300
X160778Y61300
X155778Y61300
X155778Y71300
X165778Y81300
X165778Y86300
X160778Y86300
X155778Y101300
X160778Y111300
X170778Y111300
X170778Y106300
X150778Y126300
X155778Y131300
X160778Y131300
X135778Y96300
X140778Y51300
X165778Y43800
X175778Y36300
X180778Y36300
X185778Y31300
X190778Y46300
X205778Y51300
X200778Y61300
X205778Y66300
X205778Y71300
X210778Y76300
X228278Y66300
X233278Y53800
X225778Y33800
X245778Y21300
X225778Y11300
X165778Y21300
X155778Y26300
X335778Y81300
X370778Y166300
X258278Y188800
X225778Y193800
X225778Y178800
X375778Y271300
T02
X20778Y276300
X40778Y241300
X60778Y241300
X40778Y216300
X35778Y196300
X105778Y236300
X160778Y191300
X155778Y186300
X185778Y176300
X185778Y171300
X220778Y201300
X330778Y186300
X335778Y241300
X360778Y241300
X125778Y106300
X95778Y136300
X85778Y136300
X80778Y136300
X75778Y126300
X65778Y106300
T03
X20778Y46300
X20778Y66300
X55778Y76300
X55778Y36300
T04
X30778Y286300
X30778Y276300
X30778Y266300
X30778Y256300
X30778Y246300
X15778Y256300
X35778Y231300
X40778Y223800
X45778Y231300
X50778Y246300
X50778Y256300
X50778Y266300
X50778Y276300
X50778Y286300
X70778Y286300
X70778Y276300
X70778Y266300
X70778Y256300
X70778Y246300
X75778Y231300
X80778Y223800
X85778Y231300
X90778Y246300
X90778Y256300
X90778Y266300
X90778Y276300
X90778Y286300
X110778Y286300
X110778Y276300
X110778Y266300
X110778Y256300
X110778Y246300
X115778Y231300
X120778Y223800
X125778Y231300
X130778Y246300
X130778Y256300
X130778Y266300
X130778Y276300
X130778Y286300
X150778Y286300
X150778Y276300
X150778Y266300
X150778Y256300
X150778Y246300
X155778Y231300
X160778Y223800
X165778Y231300
X170778Y246300
X170778Y256300
X170778Y266300
X170778Y276300
X170778Y286300
X190778Y286300
X190778Y276300
X190778Y266300
X190778Y256300
X190778Y246300
X195778Y231300
X200778Y223800
X205778Y231300
X210778Y246300
X210778Y256300
X210778Y266300
X210778Y276300
X210778Y286300
X230778Y286300
X230778Y276300
X230778Y266300
X230778Y256300
X230778Y246300
X235778Y231300
X240778Y223800
X245778Y231300
X250778Y246300
X250778Y256300
X250778Y266300
X250778Y276300
X250778Y286300
X270778Y286300
X270778Y276300
X270778Y266300
X270778Y256300
X270778Y246300
X275778Y231300
X280778Y223800
X285778Y231300
X290778Y246300
X290778Y256300
X290778Y266300
X290778Y276300
X290778Y286300
X310778Y286300
X310778Y276300
X310778Y266300
X310778Y256300
X310778Y246300
X315778Y231300
X320778Y223800
X325778Y231300
X330778Y246300
X330778Y256300
X330778Y266300
X330778Y276300
X330778Y286300
X350778Y286300
X350778Y276300
X350778Y266300
X350778Y256300
X350778Y246300
X355778Y231300
X360778Y223800
X365778Y231300
X370778Y246300
X370778Y256300
X370778Y266300
X370778Y276300
X370778Y286300
X385778Y256300
X385778Y216300
X375778Y211300
X335778Y211300
X325778Y211300
X285778Y211300
X275778Y211300
X235778Y211300
X225778Y211300
X185778Y211300
X175778Y211300
X150778Y201300
X135778Y201300
X135778Y211300
X125778Y211300
X120778Y201300
X105778Y201300
X90778Y201300
X85778Y211300
X75778Y201300
X70778Y211300
X60778Y201300
X45778Y201300
X30778Y211300
X15778Y216300
X25778Y196300
X25778Y186300
X45778Y161300
X60778Y161300
X75778Y161300
X90778Y161300
X105778Y161300
X120778Y161300
X135778Y161300
X150778Y161300
X145778Y146300
X138278Y141300
X130778Y141300
X145778Y136300
X145778Y116300
X165778Y116300
X185778Y113800
X205778Y113800
X200778Y131300
X180778Y131300
X130778Y101300
X138278Y91300
X130778Y76300
X105778Y76300
X105778Y66300
X130778Y56300
X125778Y41300
X140778Y36300
X150778Y36300
X155778Y11300
X190778Y36300
X210778Y36300
X210778Y11300
X195778Y11300
X250778Y11300
X260778Y11300
X300778Y11300
X310778Y11300
X350778Y11300
X110778Y11300
X105778Y41300
X70778Y51300
X70778Y61300
X98278Y91300
X60778Y116300
X60778Y136300
X30778Y131300
X25778Y141300
X25778Y151300
X15778Y131300
X15778Y91300
X30778Y91300
X70778Y11300
T05
X70778Y91300
X80778Y91300
X120778Y11300
X130778Y11300
X220778Y51300
X220778Y61300
X220778Y71300
X220778Y81300
X220778Y91300
X220778Y101300
T06
X20778Y301300
X20778Y16300
X385778Y16300
X385778Y301300
M30
