G75*
%MOIN*%
%OFA0B0*%
%FSLAX25Y25*%
%IPPOS*%
%LPD*%
%AMOC8*
5,1,8,0,0,1.08239X$1,22.5*
%
%ADD10C,0.00000*%
%ADD11C,0.00800*%
D10*
X0005778Y0001300D02*
X0005778Y0316261D01*
X0399478Y0316261D01*
X0399478Y0001300D01*
X0005778Y0001300D01*
X0014873Y0016300D02*
X0014875Y0016453D01*
X0014881Y0016606D01*
X0014891Y0016759D01*
X0014905Y0016912D01*
X0014923Y0017064D01*
X0014945Y0017216D01*
X0014970Y0017367D01*
X0015000Y0017518D01*
X0015033Y0017667D01*
X0015071Y0017816D01*
X0015112Y0017964D01*
X0015157Y0018110D01*
X0015206Y0018255D01*
X0015259Y0018399D01*
X0015315Y0018542D01*
X0015375Y0018683D01*
X0015439Y0018823D01*
X0015506Y0018960D01*
X0015577Y0019096D01*
X0015651Y0019230D01*
X0015729Y0019362D01*
X0015810Y0019492D01*
X0015895Y0019620D01*
X0015983Y0019746D01*
X0016074Y0019869D01*
X0016168Y0019990D01*
X0016265Y0020109D01*
X0016366Y0020225D01*
X0016469Y0020338D01*
X0016576Y0020448D01*
X0016685Y0020556D01*
X0016796Y0020661D01*
X0016911Y0020763D01*
X0017028Y0020862D01*
X0017148Y0020957D01*
X0017270Y0021050D01*
X0017395Y0021140D01*
X0017521Y0021226D01*
X0017650Y0021309D01*
X0017781Y0021388D01*
X0017914Y0021464D01*
X0018049Y0021537D01*
X0018186Y0021606D01*
X0018325Y0021671D01*
X0018465Y0021733D01*
X0018607Y0021791D01*
X0018750Y0021846D01*
X0018895Y0021897D01*
X0019041Y0021944D01*
X0019188Y0021987D01*
X0019336Y0022026D01*
X0019485Y0022062D01*
X0019635Y0022093D01*
X0019786Y0022121D01*
X0019938Y0022145D01*
X0020090Y0022165D01*
X0020242Y0022181D01*
X0020395Y0022193D01*
X0020548Y0022201D01*
X0020701Y0022205D01*
X0020855Y0022205D01*
X0021008Y0022201D01*
X0021161Y0022193D01*
X0021314Y0022181D01*
X0021466Y0022165D01*
X0021618Y0022145D01*
X0021770Y0022121D01*
X0021921Y0022093D01*
X0022071Y0022062D01*
X0022220Y0022026D01*
X0022368Y0021987D01*
X0022515Y0021944D01*
X0022661Y0021897D01*
X0022806Y0021846D01*
X0022949Y0021791D01*
X0023091Y0021733D01*
X0023231Y0021671D01*
X0023370Y0021606D01*
X0023507Y0021537D01*
X0023642Y0021464D01*
X0023775Y0021388D01*
X0023906Y0021309D01*
X0024035Y0021226D01*
X0024161Y0021140D01*
X0024286Y0021050D01*
X0024408Y0020957D01*
X0024528Y0020862D01*
X0024645Y0020763D01*
X0024760Y0020661D01*
X0024871Y0020556D01*
X0024980Y0020448D01*
X0025087Y0020338D01*
X0025190Y0020225D01*
X0025291Y0020109D01*
X0025388Y0019990D01*
X0025482Y0019869D01*
X0025573Y0019746D01*
X0025661Y0019620D01*
X0025746Y0019492D01*
X0025827Y0019362D01*
X0025905Y0019230D01*
X0025979Y0019096D01*
X0026050Y0018960D01*
X0026117Y0018823D01*
X0026181Y0018683D01*
X0026241Y0018542D01*
X0026297Y0018399D01*
X0026350Y0018255D01*
X0026399Y0018110D01*
X0026444Y0017964D01*
X0026485Y0017816D01*
X0026523Y0017667D01*
X0026556Y0017518D01*
X0026586Y0017367D01*
X0026611Y0017216D01*
X0026633Y0017064D01*
X0026651Y0016912D01*
X0026665Y0016759D01*
X0026675Y0016606D01*
X0026681Y0016453D01*
X0026683Y0016300D01*
X0026681Y0016147D01*
X0026675Y0015994D01*
X0026665Y0015841D01*
X0026651Y0015688D01*
X0026633Y0015536D01*
X0026611Y0015384D01*
X0026586Y0015233D01*
X0026556Y0015082D01*
X0026523Y0014933D01*
X0026485Y0014784D01*
X0026444Y0014636D01*
X0026399Y0014490D01*
X0026350Y0014345D01*
X0026297Y0014201D01*
X0026241Y0014058D01*
X0026181Y0013917D01*
X0026117Y0013777D01*
X0026050Y0013640D01*
X0025979Y0013504D01*
X0025905Y0013370D01*
X0025827Y0013238D01*
X0025746Y0013108D01*
X0025661Y0012980D01*
X0025573Y0012854D01*
X0025482Y0012731D01*
X0025388Y0012610D01*
X0025291Y0012491D01*
X0025190Y0012375D01*
X0025087Y0012262D01*
X0024980Y0012152D01*
X0024871Y0012044D01*
X0024760Y0011939D01*
X0024645Y0011837D01*
X0024528Y0011738D01*
X0024408Y0011643D01*
X0024286Y0011550D01*
X0024161Y0011460D01*
X0024035Y0011374D01*
X0023906Y0011291D01*
X0023775Y0011212D01*
X0023642Y0011136D01*
X0023507Y0011063D01*
X0023370Y0010994D01*
X0023231Y0010929D01*
X0023091Y0010867D01*
X0022949Y0010809D01*
X0022806Y0010754D01*
X0022661Y0010703D01*
X0022515Y0010656D01*
X0022368Y0010613D01*
X0022220Y0010574D01*
X0022071Y0010538D01*
X0021921Y0010507D01*
X0021770Y0010479D01*
X0021618Y0010455D01*
X0021466Y0010435D01*
X0021314Y0010419D01*
X0021161Y0010407D01*
X0021008Y0010399D01*
X0020855Y0010395D01*
X0020701Y0010395D01*
X0020548Y0010399D01*
X0020395Y0010407D01*
X0020242Y0010419D01*
X0020090Y0010435D01*
X0019938Y0010455D01*
X0019786Y0010479D01*
X0019635Y0010507D01*
X0019485Y0010538D01*
X0019336Y0010574D01*
X0019188Y0010613D01*
X0019041Y0010656D01*
X0018895Y0010703D01*
X0018750Y0010754D01*
X0018607Y0010809D01*
X0018465Y0010867D01*
X0018325Y0010929D01*
X0018186Y0010994D01*
X0018049Y0011063D01*
X0017914Y0011136D01*
X0017781Y0011212D01*
X0017650Y0011291D01*
X0017521Y0011374D01*
X0017395Y0011460D01*
X0017270Y0011550D01*
X0017148Y0011643D01*
X0017028Y0011738D01*
X0016911Y0011837D01*
X0016796Y0011939D01*
X0016685Y0012044D01*
X0016576Y0012152D01*
X0016469Y0012262D01*
X0016366Y0012375D01*
X0016265Y0012491D01*
X0016168Y0012610D01*
X0016074Y0012731D01*
X0015983Y0012854D01*
X0015895Y0012980D01*
X0015810Y0013108D01*
X0015729Y0013238D01*
X0015651Y0013370D01*
X0015577Y0013504D01*
X0015506Y0013640D01*
X0015439Y0013777D01*
X0015375Y0013917D01*
X0015315Y0014058D01*
X0015259Y0014201D01*
X0015206Y0014345D01*
X0015157Y0014490D01*
X0015112Y0014636D01*
X0015071Y0014784D01*
X0015033Y0014933D01*
X0015000Y0015082D01*
X0014970Y0015233D01*
X0014945Y0015384D01*
X0014923Y0015536D01*
X0014905Y0015688D01*
X0014891Y0015841D01*
X0014881Y0015994D01*
X0014875Y0016147D01*
X0014873Y0016300D01*
X0014873Y0301300D02*
X0014875Y0301453D01*
X0014881Y0301606D01*
X0014891Y0301759D01*
X0014905Y0301912D01*
X0014923Y0302064D01*
X0014945Y0302216D01*
X0014970Y0302367D01*
X0015000Y0302518D01*
X0015033Y0302667D01*
X0015071Y0302816D01*
X0015112Y0302964D01*
X0015157Y0303110D01*
X0015206Y0303255D01*
X0015259Y0303399D01*
X0015315Y0303542D01*
X0015375Y0303683D01*
X0015439Y0303823D01*
X0015506Y0303960D01*
X0015577Y0304096D01*
X0015651Y0304230D01*
X0015729Y0304362D01*
X0015810Y0304492D01*
X0015895Y0304620D01*
X0015983Y0304746D01*
X0016074Y0304869D01*
X0016168Y0304990D01*
X0016265Y0305109D01*
X0016366Y0305225D01*
X0016469Y0305338D01*
X0016576Y0305448D01*
X0016685Y0305556D01*
X0016796Y0305661D01*
X0016911Y0305763D01*
X0017028Y0305862D01*
X0017148Y0305957D01*
X0017270Y0306050D01*
X0017395Y0306140D01*
X0017521Y0306226D01*
X0017650Y0306309D01*
X0017781Y0306388D01*
X0017914Y0306464D01*
X0018049Y0306537D01*
X0018186Y0306606D01*
X0018325Y0306671D01*
X0018465Y0306733D01*
X0018607Y0306791D01*
X0018750Y0306846D01*
X0018895Y0306897D01*
X0019041Y0306944D01*
X0019188Y0306987D01*
X0019336Y0307026D01*
X0019485Y0307062D01*
X0019635Y0307093D01*
X0019786Y0307121D01*
X0019938Y0307145D01*
X0020090Y0307165D01*
X0020242Y0307181D01*
X0020395Y0307193D01*
X0020548Y0307201D01*
X0020701Y0307205D01*
X0020855Y0307205D01*
X0021008Y0307201D01*
X0021161Y0307193D01*
X0021314Y0307181D01*
X0021466Y0307165D01*
X0021618Y0307145D01*
X0021770Y0307121D01*
X0021921Y0307093D01*
X0022071Y0307062D01*
X0022220Y0307026D01*
X0022368Y0306987D01*
X0022515Y0306944D01*
X0022661Y0306897D01*
X0022806Y0306846D01*
X0022949Y0306791D01*
X0023091Y0306733D01*
X0023231Y0306671D01*
X0023370Y0306606D01*
X0023507Y0306537D01*
X0023642Y0306464D01*
X0023775Y0306388D01*
X0023906Y0306309D01*
X0024035Y0306226D01*
X0024161Y0306140D01*
X0024286Y0306050D01*
X0024408Y0305957D01*
X0024528Y0305862D01*
X0024645Y0305763D01*
X0024760Y0305661D01*
X0024871Y0305556D01*
X0024980Y0305448D01*
X0025087Y0305338D01*
X0025190Y0305225D01*
X0025291Y0305109D01*
X0025388Y0304990D01*
X0025482Y0304869D01*
X0025573Y0304746D01*
X0025661Y0304620D01*
X0025746Y0304492D01*
X0025827Y0304362D01*
X0025905Y0304230D01*
X0025979Y0304096D01*
X0026050Y0303960D01*
X0026117Y0303823D01*
X0026181Y0303683D01*
X0026241Y0303542D01*
X0026297Y0303399D01*
X0026350Y0303255D01*
X0026399Y0303110D01*
X0026444Y0302964D01*
X0026485Y0302816D01*
X0026523Y0302667D01*
X0026556Y0302518D01*
X0026586Y0302367D01*
X0026611Y0302216D01*
X0026633Y0302064D01*
X0026651Y0301912D01*
X0026665Y0301759D01*
X0026675Y0301606D01*
X0026681Y0301453D01*
X0026683Y0301300D01*
X0026681Y0301147D01*
X0026675Y0300994D01*
X0026665Y0300841D01*
X0026651Y0300688D01*
X0026633Y0300536D01*
X0026611Y0300384D01*
X0026586Y0300233D01*
X0026556Y0300082D01*
X0026523Y0299933D01*
X0026485Y0299784D01*
X0026444Y0299636D01*
X0026399Y0299490D01*
X0026350Y0299345D01*
X0026297Y0299201D01*
X0026241Y0299058D01*
X0026181Y0298917D01*
X0026117Y0298777D01*
X0026050Y0298640D01*
X0025979Y0298504D01*
X0025905Y0298370D01*
X0025827Y0298238D01*
X0025746Y0298108D01*
X0025661Y0297980D01*
X0025573Y0297854D01*
X0025482Y0297731D01*
X0025388Y0297610D01*
X0025291Y0297491D01*
X0025190Y0297375D01*
X0025087Y0297262D01*
X0024980Y0297152D01*
X0024871Y0297044D01*
X0024760Y0296939D01*
X0024645Y0296837D01*
X0024528Y0296738D01*
X0024408Y0296643D01*
X0024286Y0296550D01*
X0024161Y0296460D01*
X0024035Y0296374D01*
X0023906Y0296291D01*
X0023775Y0296212D01*
X0023642Y0296136D01*
X0023507Y0296063D01*
X0023370Y0295994D01*
X0023231Y0295929D01*
X0023091Y0295867D01*
X0022949Y0295809D01*
X0022806Y0295754D01*
X0022661Y0295703D01*
X0022515Y0295656D01*
X0022368Y0295613D01*
X0022220Y0295574D01*
X0022071Y0295538D01*
X0021921Y0295507D01*
X0021770Y0295479D01*
X0021618Y0295455D01*
X0021466Y0295435D01*
X0021314Y0295419D01*
X0021161Y0295407D01*
X0021008Y0295399D01*
X0020855Y0295395D01*
X0020701Y0295395D01*
X0020548Y0295399D01*
X0020395Y0295407D01*
X0020242Y0295419D01*
X0020090Y0295435D01*
X0019938Y0295455D01*
X0019786Y0295479D01*
X0019635Y0295507D01*
X0019485Y0295538D01*
X0019336Y0295574D01*
X0019188Y0295613D01*
X0019041Y0295656D01*
X0018895Y0295703D01*
X0018750Y0295754D01*
X0018607Y0295809D01*
X0018465Y0295867D01*
X0018325Y0295929D01*
X0018186Y0295994D01*
X0018049Y0296063D01*
X0017914Y0296136D01*
X0017781Y0296212D01*
X0017650Y0296291D01*
X0017521Y0296374D01*
X0017395Y0296460D01*
X0017270Y0296550D01*
X0017148Y0296643D01*
X0017028Y0296738D01*
X0016911Y0296837D01*
X0016796Y0296939D01*
X0016685Y0297044D01*
X0016576Y0297152D01*
X0016469Y0297262D01*
X0016366Y0297375D01*
X0016265Y0297491D01*
X0016168Y0297610D01*
X0016074Y0297731D01*
X0015983Y0297854D01*
X0015895Y0297980D01*
X0015810Y0298108D01*
X0015729Y0298238D01*
X0015651Y0298370D01*
X0015577Y0298504D01*
X0015506Y0298640D01*
X0015439Y0298777D01*
X0015375Y0298917D01*
X0015315Y0299058D01*
X0015259Y0299201D01*
X0015206Y0299345D01*
X0015157Y0299490D01*
X0015112Y0299636D01*
X0015071Y0299784D01*
X0015033Y0299933D01*
X0015000Y0300082D01*
X0014970Y0300233D01*
X0014945Y0300384D01*
X0014923Y0300536D01*
X0014905Y0300688D01*
X0014891Y0300841D01*
X0014881Y0300994D01*
X0014875Y0301147D01*
X0014873Y0301300D01*
X0379873Y0301300D02*
X0379875Y0301453D01*
X0379881Y0301606D01*
X0379891Y0301759D01*
X0379905Y0301912D01*
X0379923Y0302064D01*
X0379945Y0302216D01*
X0379970Y0302367D01*
X0380000Y0302518D01*
X0380033Y0302667D01*
X0380071Y0302816D01*
X0380112Y0302964D01*
X0380157Y0303110D01*
X0380206Y0303255D01*
X0380259Y0303399D01*
X0380315Y0303542D01*
X0380375Y0303683D01*
X0380439Y0303823D01*
X0380506Y0303960D01*
X0380577Y0304096D01*
X0380651Y0304230D01*
X0380729Y0304362D01*
X0380810Y0304492D01*
X0380895Y0304620D01*
X0380983Y0304746D01*
X0381074Y0304869D01*
X0381168Y0304990D01*
X0381265Y0305109D01*
X0381366Y0305225D01*
X0381469Y0305338D01*
X0381576Y0305448D01*
X0381685Y0305556D01*
X0381796Y0305661D01*
X0381911Y0305763D01*
X0382028Y0305862D01*
X0382148Y0305957D01*
X0382270Y0306050D01*
X0382395Y0306140D01*
X0382521Y0306226D01*
X0382650Y0306309D01*
X0382781Y0306388D01*
X0382914Y0306464D01*
X0383049Y0306537D01*
X0383186Y0306606D01*
X0383325Y0306671D01*
X0383465Y0306733D01*
X0383607Y0306791D01*
X0383750Y0306846D01*
X0383895Y0306897D01*
X0384041Y0306944D01*
X0384188Y0306987D01*
X0384336Y0307026D01*
X0384485Y0307062D01*
X0384635Y0307093D01*
X0384786Y0307121D01*
X0384938Y0307145D01*
X0385090Y0307165D01*
X0385242Y0307181D01*
X0385395Y0307193D01*
X0385548Y0307201D01*
X0385701Y0307205D01*
X0385855Y0307205D01*
X0386008Y0307201D01*
X0386161Y0307193D01*
X0386314Y0307181D01*
X0386466Y0307165D01*
X0386618Y0307145D01*
X0386770Y0307121D01*
X0386921Y0307093D01*
X0387071Y0307062D01*
X0387220Y0307026D01*
X0387368Y0306987D01*
X0387515Y0306944D01*
X0387661Y0306897D01*
X0387806Y0306846D01*
X0387949Y0306791D01*
X0388091Y0306733D01*
X0388231Y0306671D01*
X0388370Y0306606D01*
X0388507Y0306537D01*
X0388642Y0306464D01*
X0388775Y0306388D01*
X0388906Y0306309D01*
X0389035Y0306226D01*
X0389161Y0306140D01*
X0389286Y0306050D01*
X0389408Y0305957D01*
X0389528Y0305862D01*
X0389645Y0305763D01*
X0389760Y0305661D01*
X0389871Y0305556D01*
X0389980Y0305448D01*
X0390087Y0305338D01*
X0390190Y0305225D01*
X0390291Y0305109D01*
X0390388Y0304990D01*
X0390482Y0304869D01*
X0390573Y0304746D01*
X0390661Y0304620D01*
X0390746Y0304492D01*
X0390827Y0304362D01*
X0390905Y0304230D01*
X0390979Y0304096D01*
X0391050Y0303960D01*
X0391117Y0303823D01*
X0391181Y0303683D01*
X0391241Y0303542D01*
X0391297Y0303399D01*
X0391350Y0303255D01*
X0391399Y0303110D01*
X0391444Y0302964D01*
X0391485Y0302816D01*
X0391523Y0302667D01*
X0391556Y0302518D01*
X0391586Y0302367D01*
X0391611Y0302216D01*
X0391633Y0302064D01*
X0391651Y0301912D01*
X0391665Y0301759D01*
X0391675Y0301606D01*
X0391681Y0301453D01*
X0391683Y0301300D01*
X0391681Y0301147D01*
X0391675Y0300994D01*
X0391665Y0300841D01*
X0391651Y0300688D01*
X0391633Y0300536D01*
X0391611Y0300384D01*
X0391586Y0300233D01*
X0391556Y0300082D01*
X0391523Y0299933D01*
X0391485Y0299784D01*
X0391444Y0299636D01*
X0391399Y0299490D01*
X0391350Y0299345D01*
X0391297Y0299201D01*
X0391241Y0299058D01*
X0391181Y0298917D01*
X0391117Y0298777D01*
X0391050Y0298640D01*
X0390979Y0298504D01*
X0390905Y0298370D01*
X0390827Y0298238D01*
X0390746Y0298108D01*
X0390661Y0297980D01*
X0390573Y0297854D01*
X0390482Y0297731D01*
X0390388Y0297610D01*
X0390291Y0297491D01*
X0390190Y0297375D01*
X0390087Y0297262D01*
X0389980Y0297152D01*
X0389871Y0297044D01*
X0389760Y0296939D01*
X0389645Y0296837D01*
X0389528Y0296738D01*
X0389408Y0296643D01*
X0389286Y0296550D01*
X0389161Y0296460D01*
X0389035Y0296374D01*
X0388906Y0296291D01*
X0388775Y0296212D01*
X0388642Y0296136D01*
X0388507Y0296063D01*
X0388370Y0295994D01*
X0388231Y0295929D01*
X0388091Y0295867D01*
X0387949Y0295809D01*
X0387806Y0295754D01*
X0387661Y0295703D01*
X0387515Y0295656D01*
X0387368Y0295613D01*
X0387220Y0295574D01*
X0387071Y0295538D01*
X0386921Y0295507D01*
X0386770Y0295479D01*
X0386618Y0295455D01*
X0386466Y0295435D01*
X0386314Y0295419D01*
X0386161Y0295407D01*
X0386008Y0295399D01*
X0385855Y0295395D01*
X0385701Y0295395D01*
X0385548Y0295399D01*
X0385395Y0295407D01*
X0385242Y0295419D01*
X0385090Y0295435D01*
X0384938Y0295455D01*
X0384786Y0295479D01*
X0384635Y0295507D01*
X0384485Y0295538D01*
X0384336Y0295574D01*
X0384188Y0295613D01*
X0384041Y0295656D01*
X0383895Y0295703D01*
X0383750Y0295754D01*
X0383607Y0295809D01*
X0383465Y0295867D01*
X0383325Y0295929D01*
X0383186Y0295994D01*
X0383049Y0296063D01*
X0382914Y0296136D01*
X0382781Y0296212D01*
X0382650Y0296291D01*
X0382521Y0296374D01*
X0382395Y0296460D01*
X0382270Y0296550D01*
X0382148Y0296643D01*
X0382028Y0296738D01*
X0381911Y0296837D01*
X0381796Y0296939D01*
X0381685Y0297044D01*
X0381576Y0297152D01*
X0381469Y0297262D01*
X0381366Y0297375D01*
X0381265Y0297491D01*
X0381168Y0297610D01*
X0381074Y0297731D01*
X0380983Y0297854D01*
X0380895Y0297980D01*
X0380810Y0298108D01*
X0380729Y0298238D01*
X0380651Y0298370D01*
X0380577Y0298504D01*
X0380506Y0298640D01*
X0380439Y0298777D01*
X0380375Y0298917D01*
X0380315Y0299058D01*
X0380259Y0299201D01*
X0380206Y0299345D01*
X0380157Y0299490D01*
X0380112Y0299636D01*
X0380071Y0299784D01*
X0380033Y0299933D01*
X0380000Y0300082D01*
X0379970Y0300233D01*
X0379945Y0300384D01*
X0379923Y0300536D01*
X0379905Y0300688D01*
X0379891Y0300841D01*
X0379881Y0300994D01*
X0379875Y0301147D01*
X0379873Y0301300D01*
X0379873Y0016300D02*
X0379875Y0016453D01*
X0379881Y0016606D01*
X0379891Y0016759D01*
X0379905Y0016912D01*
X0379923Y0017064D01*
X0379945Y0017216D01*
X0379970Y0017367D01*
X0380000Y0017518D01*
X0380033Y0017667D01*
X0380071Y0017816D01*
X0380112Y0017964D01*
X0380157Y0018110D01*
X0380206Y0018255D01*
X0380259Y0018399D01*
X0380315Y0018542D01*
X0380375Y0018683D01*
X0380439Y0018823D01*
X0380506Y0018960D01*
X0380577Y0019096D01*
X0380651Y0019230D01*
X0380729Y0019362D01*
X0380810Y0019492D01*
X0380895Y0019620D01*
X0380983Y0019746D01*
X0381074Y0019869D01*
X0381168Y0019990D01*
X0381265Y0020109D01*
X0381366Y0020225D01*
X0381469Y0020338D01*
X0381576Y0020448D01*
X0381685Y0020556D01*
X0381796Y0020661D01*
X0381911Y0020763D01*
X0382028Y0020862D01*
X0382148Y0020957D01*
X0382270Y0021050D01*
X0382395Y0021140D01*
X0382521Y0021226D01*
X0382650Y0021309D01*
X0382781Y0021388D01*
X0382914Y0021464D01*
X0383049Y0021537D01*
X0383186Y0021606D01*
X0383325Y0021671D01*
X0383465Y0021733D01*
X0383607Y0021791D01*
X0383750Y0021846D01*
X0383895Y0021897D01*
X0384041Y0021944D01*
X0384188Y0021987D01*
X0384336Y0022026D01*
X0384485Y0022062D01*
X0384635Y0022093D01*
X0384786Y0022121D01*
X0384938Y0022145D01*
X0385090Y0022165D01*
X0385242Y0022181D01*
X0385395Y0022193D01*
X0385548Y0022201D01*
X0385701Y0022205D01*
X0385855Y0022205D01*
X0386008Y0022201D01*
X0386161Y0022193D01*
X0386314Y0022181D01*
X0386466Y0022165D01*
X0386618Y0022145D01*
X0386770Y0022121D01*
X0386921Y0022093D01*
X0387071Y0022062D01*
X0387220Y0022026D01*
X0387368Y0021987D01*
X0387515Y0021944D01*
X0387661Y0021897D01*
X0387806Y0021846D01*
X0387949Y0021791D01*
X0388091Y0021733D01*
X0388231Y0021671D01*
X0388370Y0021606D01*
X0388507Y0021537D01*
X0388642Y0021464D01*
X0388775Y0021388D01*
X0388906Y0021309D01*
X0389035Y0021226D01*
X0389161Y0021140D01*
X0389286Y0021050D01*
X0389408Y0020957D01*
X0389528Y0020862D01*
X0389645Y0020763D01*
X0389760Y0020661D01*
X0389871Y0020556D01*
X0389980Y0020448D01*
X0390087Y0020338D01*
X0390190Y0020225D01*
X0390291Y0020109D01*
X0390388Y0019990D01*
X0390482Y0019869D01*
X0390573Y0019746D01*
X0390661Y0019620D01*
X0390746Y0019492D01*
X0390827Y0019362D01*
X0390905Y0019230D01*
X0390979Y0019096D01*
X0391050Y0018960D01*
X0391117Y0018823D01*
X0391181Y0018683D01*
X0391241Y0018542D01*
X0391297Y0018399D01*
X0391350Y0018255D01*
X0391399Y0018110D01*
X0391444Y0017964D01*
X0391485Y0017816D01*
X0391523Y0017667D01*
X0391556Y0017518D01*
X0391586Y0017367D01*
X0391611Y0017216D01*
X0391633Y0017064D01*
X0391651Y0016912D01*
X0391665Y0016759D01*
X0391675Y0016606D01*
X0391681Y0016453D01*
X0391683Y0016300D01*
X0391681Y0016147D01*
X0391675Y0015994D01*
X0391665Y0015841D01*
X0391651Y0015688D01*
X0391633Y0015536D01*
X0391611Y0015384D01*
X0391586Y0015233D01*
X0391556Y0015082D01*
X0391523Y0014933D01*
X0391485Y0014784D01*
X0391444Y0014636D01*
X0391399Y0014490D01*
X0391350Y0014345D01*
X0391297Y0014201D01*
X0391241Y0014058D01*
X0391181Y0013917D01*
X0391117Y0013777D01*
X0391050Y0013640D01*
X0390979Y0013504D01*
X0390905Y0013370D01*
X0390827Y0013238D01*
X0390746Y0013108D01*
X0390661Y0012980D01*
X0390573Y0012854D01*
X0390482Y0012731D01*
X0390388Y0012610D01*
X0390291Y0012491D01*
X0390190Y0012375D01*
X0390087Y0012262D01*
X0389980Y0012152D01*
X0389871Y0012044D01*
X0389760Y0011939D01*
X0389645Y0011837D01*
X0389528Y0011738D01*
X0389408Y0011643D01*
X0389286Y0011550D01*
X0389161Y0011460D01*
X0389035Y0011374D01*
X0388906Y0011291D01*
X0388775Y0011212D01*
X0388642Y0011136D01*
X0388507Y0011063D01*
X0388370Y0010994D01*
X0388231Y0010929D01*
X0388091Y0010867D01*
X0387949Y0010809D01*
X0387806Y0010754D01*
X0387661Y0010703D01*
X0387515Y0010656D01*
X0387368Y0010613D01*
X0387220Y0010574D01*
X0387071Y0010538D01*
X0386921Y0010507D01*
X0386770Y0010479D01*
X0386618Y0010455D01*
X0386466Y0010435D01*
X0386314Y0010419D01*
X0386161Y0010407D01*
X0386008Y0010399D01*
X0385855Y0010395D01*
X0385701Y0010395D01*
X0385548Y0010399D01*
X0385395Y0010407D01*
X0385242Y0010419D01*
X0385090Y0010435D01*
X0384938Y0010455D01*
X0384786Y0010479D01*
X0384635Y0010507D01*
X0384485Y0010538D01*
X0384336Y0010574D01*
X0384188Y0010613D01*
X0384041Y0010656D01*
X0383895Y0010703D01*
X0383750Y0010754D01*
X0383607Y0010809D01*
X0383465Y0010867D01*
X0383325Y0010929D01*
X0383186Y0010994D01*
X0383049Y0011063D01*
X0382914Y0011136D01*
X0382781Y0011212D01*
X0382650Y0011291D01*
X0382521Y0011374D01*
X0382395Y0011460D01*
X0382270Y0011550D01*
X0382148Y0011643D01*
X0382028Y0011738D01*
X0381911Y0011837D01*
X0381796Y0011939D01*
X0381685Y0012044D01*
X0381576Y0012152D01*
X0381469Y0012262D01*
X0381366Y0012375D01*
X0381265Y0012491D01*
X0381168Y0012610D01*
X0381074Y0012731D01*
X0380983Y0012854D01*
X0380895Y0012980D01*
X0380810Y0013108D01*
X0380729Y0013238D01*
X0380651Y0013370D01*
X0380577Y0013504D01*
X0380506Y0013640D01*
X0380439Y0013777D01*
X0380375Y0013917D01*
X0380315Y0014058D01*
X0380259Y0014201D01*
X0380206Y0014345D01*
X0380157Y0014490D01*
X0380112Y0014636D01*
X0380071Y0014784D01*
X0380033Y0014933D01*
X0380000Y0015082D01*
X0379970Y0015233D01*
X0379945Y0015384D01*
X0379923Y0015536D01*
X0379905Y0015688D01*
X0379891Y0015841D01*
X0379881Y0015994D01*
X0379875Y0016147D01*
X0379873Y0016300D01*
D11*
X0236931Y0296133D02*
X0236931Y0305333D01*
X0234376Y0305333D01*
X0234298Y0305331D01*
X0234221Y0305325D01*
X0234144Y0305315D01*
X0234067Y0305302D01*
X0233992Y0305284D01*
X0233917Y0305263D01*
X0233844Y0305238D01*
X0233771Y0305209D01*
X0233701Y0305176D01*
X0233632Y0305140D01*
X0233565Y0305101D01*
X0233500Y0305058D01*
X0233438Y0305012D01*
X0233377Y0304963D01*
X0233320Y0304911D01*
X0233265Y0304856D01*
X0233213Y0304799D01*
X0233164Y0304738D01*
X0233118Y0304676D01*
X0233075Y0304611D01*
X0233036Y0304544D01*
X0233000Y0304475D01*
X0232967Y0304405D01*
X0232938Y0304332D01*
X0232913Y0304259D01*
X0232892Y0304184D01*
X0232874Y0304109D01*
X0232861Y0304032D01*
X0232851Y0303955D01*
X0232845Y0303878D01*
X0232843Y0303800D01*
X0232843Y0300733D01*
X0232845Y0300658D01*
X0232850Y0300583D01*
X0232860Y0300508D01*
X0232872Y0300434D01*
X0232889Y0300361D01*
X0232909Y0300288D01*
X0232933Y0300217D01*
X0232960Y0300146D01*
X0232990Y0300078D01*
X0233024Y0300010D01*
X0233061Y0299945D01*
X0233101Y0299881D01*
X0233145Y0299820D01*
X0233191Y0299760D01*
X0233240Y0299704D01*
X0233292Y0299649D01*
X0233347Y0299597D01*
X0233403Y0299548D01*
X0233463Y0299502D01*
X0233524Y0299458D01*
X0233588Y0299418D01*
X0233653Y0299381D01*
X0233721Y0299347D01*
X0233789Y0299317D01*
X0233860Y0299290D01*
X0233931Y0299266D01*
X0234004Y0299246D01*
X0234077Y0299229D01*
X0234151Y0299217D01*
X0234226Y0299207D01*
X0234301Y0299202D01*
X0234376Y0299200D01*
X0236931Y0299200D01*
X0229528Y0299200D02*
X0229528Y0305333D01*
X0226462Y0305333D01*
X0226462Y0304311D01*
X0223947Y0305333D02*
X0223947Y0299200D01*
X0220438Y0299200D02*
X0220438Y0305333D01*
X0215838Y0305333D01*
X0215760Y0305331D01*
X0215683Y0305325D01*
X0215606Y0305315D01*
X0215529Y0305302D01*
X0215454Y0305284D01*
X0215379Y0305263D01*
X0215306Y0305238D01*
X0215233Y0305209D01*
X0215163Y0305176D01*
X0215094Y0305140D01*
X0215027Y0305101D01*
X0214962Y0305058D01*
X0214900Y0305012D01*
X0214839Y0304963D01*
X0214782Y0304911D01*
X0214727Y0304856D01*
X0214675Y0304799D01*
X0214626Y0304738D01*
X0214580Y0304676D01*
X0214537Y0304611D01*
X0214498Y0304544D01*
X0214462Y0304475D01*
X0214429Y0304405D01*
X0214400Y0304332D01*
X0214375Y0304259D01*
X0214354Y0304184D01*
X0214336Y0304109D01*
X0214323Y0304032D01*
X0214313Y0303955D01*
X0214307Y0303878D01*
X0214305Y0303800D01*
X0214304Y0303800D02*
X0214304Y0299200D01*
X0217371Y0299200D02*
X0217371Y0305333D01*
X0223692Y0307889D02*
X0223692Y0308400D01*
X0224203Y0308400D01*
X0224203Y0307889D01*
X0223692Y0307889D01*
X0210922Y0303289D02*
X0210922Y0300733D01*
X0210922Y0302267D02*
X0206833Y0302267D01*
X0206833Y0303289D01*
X0206835Y0303378D01*
X0206841Y0303467D01*
X0206850Y0303556D01*
X0206864Y0303644D01*
X0206881Y0303731D01*
X0206903Y0303818D01*
X0206928Y0303904D01*
X0206956Y0303988D01*
X0206989Y0304071D01*
X0207025Y0304153D01*
X0207064Y0304233D01*
X0207107Y0304311D01*
X0207153Y0304387D01*
X0207203Y0304461D01*
X0207255Y0304533D01*
X0207311Y0304603D01*
X0207370Y0304670D01*
X0207432Y0304734D01*
X0207496Y0304796D01*
X0207563Y0304855D01*
X0207633Y0304911D01*
X0207705Y0304963D01*
X0207779Y0305013D01*
X0207855Y0305059D01*
X0207933Y0305102D01*
X0208013Y0305141D01*
X0208095Y0305177D01*
X0208178Y0305210D01*
X0208262Y0305238D01*
X0208348Y0305263D01*
X0208435Y0305285D01*
X0208522Y0305302D01*
X0208610Y0305316D01*
X0208699Y0305325D01*
X0208788Y0305331D01*
X0208877Y0305333D01*
X0208966Y0305331D01*
X0209055Y0305325D01*
X0209144Y0305316D01*
X0209232Y0305302D01*
X0209319Y0305285D01*
X0209406Y0305263D01*
X0209492Y0305238D01*
X0209576Y0305210D01*
X0209659Y0305177D01*
X0209741Y0305141D01*
X0209821Y0305102D01*
X0209899Y0305059D01*
X0209975Y0305013D01*
X0210049Y0304963D01*
X0210121Y0304911D01*
X0210191Y0304855D01*
X0210258Y0304796D01*
X0210322Y0304734D01*
X0210384Y0304670D01*
X0210443Y0304603D01*
X0210499Y0304533D01*
X0210551Y0304461D01*
X0210601Y0304387D01*
X0210647Y0304311D01*
X0210690Y0304233D01*
X0210729Y0304153D01*
X0210765Y0304071D01*
X0210798Y0303988D01*
X0210826Y0303904D01*
X0210851Y0303818D01*
X0210873Y0303731D01*
X0210890Y0303644D01*
X0210904Y0303556D01*
X0210913Y0303467D01*
X0210919Y0303378D01*
X0210921Y0303289D01*
X0210921Y0300733D02*
X0210919Y0300658D01*
X0210914Y0300583D01*
X0210904Y0300508D01*
X0210892Y0300434D01*
X0210875Y0300361D01*
X0210855Y0300288D01*
X0210831Y0300217D01*
X0210804Y0300146D01*
X0210774Y0300078D01*
X0210740Y0300010D01*
X0210703Y0299945D01*
X0210663Y0299881D01*
X0210619Y0299820D01*
X0210573Y0299760D01*
X0210524Y0299704D01*
X0210472Y0299649D01*
X0210418Y0299597D01*
X0210361Y0299548D01*
X0210301Y0299502D01*
X0210240Y0299458D01*
X0210176Y0299418D01*
X0210111Y0299381D01*
X0210043Y0299347D01*
X0209975Y0299317D01*
X0209904Y0299290D01*
X0209833Y0299266D01*
X0209760Y0299246D01*
X0209687Y0299229D01*
X0209613Y0299217D01*
X0209538Y0299207D01*
X0209463Y0299202D01*
X0209388Y0299200D01*
X0206833Y0299200D01*
X0199140Y0299200D02*
X0199140Y0305333D01*
X0196584Y0305333D01*
X0196506Y0305331D01*
X0196429Y0305325D01*
X0196352Y0305315D01*
X0196275Y0305302D01*
X0196200Y0305284D01*
X0196125Y0305263D01*
X0196052Y0305238D01*
X0195979Y0305209D01*
X0195909Y0305176D01*
X0195840Y0305140D01*
X0195773Y0305101D01*
X0195708Y0305058D01*
X0195646Y0305012D01*
X0195585Y0304963D01*
X0195528Y0304911D01*
X0195473Y0304856D01*
X0195421Y0304799D01*
X0195372Y0304738D01*
X0195326Y0304676D01*
X0195283Y0304611D01*
X0195244Y0304544D01*
X0195208Y0304475D01*
X0195175Y0304405D01*
X0195146Y0304332D01*
X0195121Y0304259D01*
X0195100Y0304184D01*
X0195082Y0304109D01*
X0195069Y0304032D01*
X0195059Y0303955D01*
X0195053Y0303878D01*
X0195051Y0303800D01*
X0195051Y0299200D01*
X0191468Y0300733D02*
X0191468Y0305333D01*
X0187379Y0305333D02*
X0187379Y0299200D01*
X0189934Y0299200D01*
X0190012Y0299202D01*
X0190089Y0299208D01*
X0190166Y0299218D01*
X0190243Y0299231D01*
X0190318Y0299249D01*
X0190393Y0299270D01*
X0190466Y0299295D01*
X0190539Y0299324D01*
X0190609Y0299357D01*
X0190678Y0299393D01*
X0190745Y0299432D01*
X0190810Y0299475D01*
X0190872Y0299521D01*
X0190933Y0299570D01*
X0190990Y0299622D01*
X0191045Y0299677D01*
X0191097Y0299734D01*
X0191146Y0299795D01*
X0191192Y0299857D01*
X0191235Y0299922D01*
X0191274Y0299989D01*
X0191310Y0300058D01*
X0191343Y0300128D01*
X0191372Y0300201D01*
X0191397Y0300274D01*
X0191418Y0300349D01*
X0191436Y0300424D01*
X0191449Y0300501D01*
X0191459Y0300578D01*
X0191465Y0300655D01*
X0191467Y0300733D01*
X0183722Y0299200D02*
X0183722Y0305333D01*
X0179122Y0305333D01*
X0179044Y0305331D01*
X0178967Y0305325D01*
X0178890Y0305315D01*
X0178813Y0305302D01*
X0178738Y0305284D01*
X0178663Y0305263D01*
X0178590Y0305238D01*
X0178517Y0305209D01*
X0178447Y0305176D01*
X0178378Y0305140D01*
X0178311Y0305101D01*
X0178246Y0305058D01*
X0178184Y0305012D01*
X0178123Y0304963D01*
X0178066Y0304911D01*
X0178011Y0304856D01*
X0177959Y0304799D01*
X0177910Y0304738D01*
X0177864Y0304676D01*
X0177821Y0304611D01*
X0177782Y0304544D01*
X0177746Y0304475D01*
X0177713Y0304405D01*
X0177684Y0304332D01*
X0177659Y0304259D01*
X0177638Y0304184D01*
X0177620Y0304109D01*
X0177607Y0304032D01*
X0177597Y0303955D01*
X0177591Y0303878D01*
X0177589Y0303800D01*
X0177589Y0299200D01*
X0180655Y0299200D02*
X0180655Y0305333D01*
X0173912Y0305333D02*
X0171356Y0305333D01*
X0171281Y0305331D01*
X0171206Y0305326D01*
X0171131Y0305316D01*
X0171057Y0305304D01*
X0170984Y0305287D01*
X0170911Y0305267D01*
X0170840Y0305243D01*
X0170769Y0305216D01*
X0170701Y0305186D01*
X0170633Y0305152D01*
X0170568Y0305115D01*
X0170504Y0305075D01*
X0170443Y0305031D01*
X0170383Y0304985D01*
X0170327Y0304936D01*
X0170272Y0304884D01*
X0170220Y0304830D01*
X0170171Y0304773D01*
X0170125Y0304713D01*
X0170081Y0304652D01*
X0170041Y0304588D01*
X0170004Y0304523D01*
X0169970Y0304455D01*
X0169940Y0304387D01*
X0169913Y0304316D01*
X0169889Y0304245D01*
X0169869Y0304172D01*
X0169852Y0304099D01*
X0169840Y0304025D01*
X0169830Y0303950D01*
X0169825Y0303875D01*
X0169823Y0303800D01*
X0169823Y0300733D01*
X0169825Y0300658D01*
X0169830Y0300583D01*
X0169840Y0300508D01*
X0169852Y0300434D01*
X0169869Y0300361D01*
X0169889Y0300288D01*
X0169913Y0300217D01*
X0169940Y0300146D01*
X0169970Y0300078D01*
X0170004Y0300010D01*
X0170041Y0299945D01*
X0170081Y0299881D01*
X0170125Y0299820D01*
X0170171Y0299760D01*
X0170220Y0299704D01*
X0170272Y0299649D01*
X0170327Y0299597D01*
X0170383Y0299548D01*
X0170443Y0299502D01*
X0170504Y0299458D01*
X0170568Y0299418D01*
X0170633Y0299381D01*
X0170701Y0299347D01*
X0170769Y0299317D01*
X0170840Y0299290D01*
X0170911Y0299266D01*
X0170984Y0299246D01*
X0171057Y0299229D01*
X0171131Y0299217D01*
X0171206Y0299207D01*
X0171281Y0299202D01*
X0171356Y0299200D01*
X0173912Y0299200D01*
X0173912Y0308400D01*
X0166808Y0303289D02*
X0166808Y0300733D01*
X0166808Y0302267D02*
X0162719Y0302267D01*
X0162719Y0303289D01*
X0162721Y0303378D01*
X0162727Y0303467D01*
X0162736Y0303556D01*
X0162750Y0303644D01*
X0162767Y0303731D01*
X0162789Y0303818D01*
X0162814Y0303904D01*
X0162842Y0303988D01*
X0162875Y0304071D01*
X0162911Y0304153D01*
X0162950Y0304233D01*
X0162993Y0304311D01*
X0163039Y0304387D01*
X0163089Y0304461D01*
X0163141Y0304533D01*
X0163197Y0304603D01*
X0163256Y0304670D01*
X0163318Y0304734D01*
X0163382Y0304796D01*
X0163449Y0304855D01*
X0163519Y0304911D01*
X0163591Y0304963D01*
X0163665Y0305013D01*
X0163741Y0305059D01*
X0163819Y0305102D01*
X0163899Y0305141D01*
X0163981Y0305177D01*
X0164064Y0305210D01*
X0164148Y0305238D01*
X0164234Y0305263D01*
X0164321Y0305285D01*
X0164408Y0305302D01*
X0164496Y0305316D01*
X0164585Y0305325D01*
X0164674Y0305331D01*
X0164763Y0305333D01*
X0164852Y0305331D01*
X0164941Y0305325D01*
X0165030Y0305316D01*
X0165118Y0305302D01*
X0165205Y0305285D01*
X0165292Y0305263D01*
X0165378Y0305238D01*
X0165462Y0305210D01*
X0165545Y0305177D01*
X0165627Y0305141D01*
X0165707Y0305102D01*
X0165785Y0305059D01*
X0165861Y0305013D01*
X0165935Y0304963D01*
X0166007Y0304911D01*
X0166077Y0304855D01*
X0166144Y0304796D01*
X0166208Y0304734D01*
X0166270Y0304670D01*
X0166329Y0304603D01*
X0166385Y0304533D01*
X0166437Y0304461D01*
X0166487Y0304387D01*
X0166533Y0304311D01*
X0166576Y0304233D01*
X0166615Y0304153D01*
X0166651Y0304071D01*
X0166684Y0303988D01*
X0166712Y0303904D01*
X0166737Y0303818D01*
X0166759Y0303731D01*
X0166776Y0303644D01*
X0166790Y0303556D01*
X0166799Y0303467D01*
X0166805Y0303378D01*
X0166807Y0303289D01*
X0166807Y0300733D02*
X0166805Y0300658D01*
X0166800Y0300583D01*
X0166790Y0300508D01*
X0166778Y0300434D01*
X0166761Y0300361D01*
X0166741Y0300288D01*
X0166717Y0300217D01*
X0166690Y0300146D01*
X0166660Y0300078D01*
X0166626Y0300010D01*
X0166589Y0299945D01*
X0166549Y0299881D01*
X0166505Y0299820D01*
X0166459Y0299760D01*
X0166410Y0299704D01*
X0166358Y0299649D01*
X0166304Y0299597D01*
X0166247Y0299548D01*
X0166187Y0299502D01*
X0166126Y0299458D01*
X0166062Y0299418D01*
X0165997Y0299381D01*
X0165929Y0299347D01*
X0165861Y0299317D01*
X0165790Y0299290D01*
X0165719Y0299266D01*
X0165646Y0299246D01*
X0165573Y0299229D01*
X0165499Y0299217D01*
X0165424Y0299207D01*
X0165349Y0299202D01*
X0165274Y0299200D01*
X0162719Y0299200D01*
X0159384Y0299200D02*
X0159384Y0305333D01*
X0156318Y0305333D01*
X0156318Y0304311D01*
X0153163Y0302778D02*
X0150607Y0301756D01*
X0150608Y0301755D02*
X0150542Y0301727D01*
X0150477Y0301694D01*
X0150414Y0301659D01*
X0150354Y0301620D01*
X0150295Y0301578D01*
X0150239Y0301532D01*
X0150186Y0301484D01*
X0150135Y0301433D01*
X0150087Y0301379D01*
X0150042Y0301323D01*
X0150000Y0301264D01*
X0149962Y0301203D01*
X0149926Y0301140D01*
X0149895Y0301075D01*
X0149867Y0301009D01*
X0149842Y0300941D01*
X0149821Y0300872D01*
X0149804Y0300802D01*
X0149791Y0300731D01*
X0149782Y0300660D01*
X0149776Y0300588D01*
X0149775Y0300516D01*
X0149777Y0300444D01*
X0149784Y0300372D01*
X0149794Y0300301D01*
X0149808Y0300230D01*
X0149826Y0300160D01*
X0149848Y0300091D01*
X0149873Y0300024D01*
X0149902Y0299958D01*
X0149935Y0299894D01*
X0149971Y0299831D01*
X0150011Y0299771D01*
X0150053Y0299713D01*
X0150099Y0299657D01*
X0150148Y0299604D01*
X0150199Y0299553D01*
X0150253Y0299506D01*
X0150310Y0299461D01*
X0150369Y0299420D01*
X0150430Y0299382D01*
X0150493Y0299347D01*
X0150558Y0299316D01*
X0150625Y0299288D01*
X0150693Y0299264D01*
X0150762Y0299244D01*
X0150832Y0299227D01*
X0150903Y0299215D01*
X0150975Y0299206D01*
X0151047Y0299201D01*
X0151119Y0299200D01*
X0150352Y0304822D02*
X0150488Y0304881D01*
X0150626Y0304937D01*
X0150764Y0304989D01*
X0150905Y0305038D01*
X0151046Y0305083D01*
X0151188Y0305124D01*
X0151332Y0305162D01*
X0151476Y0305196D01*
X0151621Y0305226D01*
X0151767Y0305253D01*
X0151913Y0305276D01*
X0152061Y0305295D01*
X0152208Y0305310D01*
X0152356Y0305322D01*
X0152504Y0305329D01*
X0152652Y0305333D01*
X0152724Y0305332D01*
X0152796Y0305327D01*
X0152868Y0305318D01*
X0152939Y0305306D01*
X0153009Y0305289D01*
X0153078Y0305269D01*
X0153146Y0305245D01*
X0153213Y0305217D01*
X0153278Y0305186D01*
X0153341Y0305151D01*
X0153402Y0305113D01*
X0153461Y0305072D01*
X0153518Y0305027D01*
X0153572Y0304980D01*
X0153623Y0304929D01*
X0153672Y0304876D01*
X0153718Y0304820D01*
X0153760Y0304762D01*
X0153800Y0304702D01*
X0153836Y0304639D01*
X0153869Y0304575D01*
X0153898Y0304509D01*
X0153923Y0304442D01*
X0153945Y0304373D01*
X0153963Y0304303D01*
X0153977Y0304232D01*
X0153987Y0304161D01*
X0153994Y0304089D01*
X0153996Y0304017D01*
X0153995Y0303945D01*
X0153989Y0303873D01*
X0153980Y0303802D01*
X0153967Y0303731D01*
X0153950Y0303661D01*
X0153929Y0303592D01*
X0153904Y0303524D01*
X0153876Y0303458D01*
X0153845Y0303393D01*
X0153809Y0303330D01*
X0153771Y0303269D01*
X0153729Y0303210D01*
X0153684Y0303154D01*
X0153636Y0303100D01*
X0153585Y0303049D01*
X0153532Y0303001D01*
X0153476Y0302955D01*
X0153417Y0302913D01*
X0153357Y0302874D01*
X0153294Y0302839D01*
X0153229Y0302806D01*
X0153163Y0302778D01*
X0153930Y0299711D02*
X0153736Y0299644D01*
X0153541Y0299581D01*
X0153344Y0299523D01*
X0153146Y0299470D01*
X0152947Y0299422D01*
X0152747Y0299378D01*
X0152546Y0299339D01*
X0152343Y0299305D01*
X0152141Y0299275D01*
X0151937Y0299250D01*
X0151733Y0299230D01*
X0151528Y0299215D01*
X0151324Y0299205D01*
X0151119Y0299200D01*
X0146935Y0299200D02*
X0146424Y0299200D01*
X0146424Y0299711D01*
X0146935Y0299711D01*
X0146935Y0299200D01*
X0138823Y0299200D02*
X0138823Y0308400D01*
X0133712Y0308400D02*
X0133712Y0299200D01*
X0133712Y0304311D02*
X0138823Y0304311D01*
X0129875Y0305333D02*
X0127830Y0305333D01*
X0127755Y0305331D01*
X0127680Y0305326D01*
X0127605Y0305316D01*
X0127531Y0305304D01*
X0127458Y0305287D01*
X0127385Y0305267D01*
X0127314Y0305243D01*
X0127243Y0305216D01*
X0127175Y0305186D01*
X0127107Y0305152D01*
X0127042Y0305115D01*
X0126978Y0305075D01*
X0126917Y0305031D01*
X0126857Y0304985D01*
X0126801Y0304936D01*
X0126746Y0304884D01*
X0126694Y0304830D01*
X0126645Y0304773D01*
X0126599Y0304713D01*
X0126555Y0304652D01*
X0126515Y0304588D01*
X0126478Y0304523D01*
X0126444Y0304455D01*
X0126414Y0304387D01*
X0126387Y0304316D01*
X0126363Y0304245D01*
X0126343Y0304172D01*
X0126326Y0304099D01*
X0126314Y0304025D01*
X0126304Y0303950D01*
X0126299Y0303875D01*
X0126297Y0303800D01*
X0126297Y0299200D01*
X0128597Y0299200D01*
X0128681Y0299202D01*
X0128765Y0299208D01*
X0128848Y0299218D01*
X0128931Y0299231D01*
X0129013Y0299249D01*
X0129094Y0299270D01*
X0129174Y0299296D01*
X0129252Y0299324D01*
X0129330Y0299357D01*
X0129405Y0299393D01*
X0129479Y0299433D01*
X0129551Y0299476D01*
X0129621Y0299522D01*
X0129689Y0299572D01*
X0129754Y0299625D01*
X0129817Y0299680D01*
X0129877Y0299739D01*
X0129934Y0299800D01*
X0129988Y0299864D01*
X0130039Y0299931D01*
X0130087Y0299999D01*
X0130132Y0300070D01*
X0130174Y0300143D01*
X0130211Y0300218D01*
X0130246Y0300295D01*
X0130277Y0300373D01*
X0130304Y0300452D01*
X0130327Y0300533D01*
X0130346Y0300614D01*
X0130362Y0300697D01*
X0130374Y0300780D01*
X0130382Y0300863D01*
X0130386Y0300947D01*
X0130386Y0301031D01*
X0130382Y0301115D01*
X0130374Y0301198D01*
X0130362Y0301281D01*
X0130346Y0301364D01*
X0130327Y0301445D01*
X0130304Y0301526D01*
X0130277Y0301605D01*
X0130246Y0301683D01*
X0130211Y0301760D01*
X0130174Y0301835D01*
X0130132Y0301908D01*
X0130087Y0301979D01*
X0130039Y0302047D01*
X0129988Y0302114D01*
X0129934Y0302178D01*
X0129877Y0302239D01*
X0129817Y0302298D01*
X0129754Y0302353D01*
X0129689Y0302406D01*
X0129621Y0302456D01*
X0129551Y0302502D01*
X0129479Y0302545D01*
X0129405Y0302585D01*
X0129330Y0302621D01*
X0129252Y0302654D01*
X0129174Y0302682D01*
X0129094Y0302708D01*
X0129013Y0302729D01*
X0128931Y0302747D01*
X0128848Y0302760D01*
X0128765Y0302770D01*
X0128681Y0302776D01*
X0128597Y0302778D01*
X0126297Y0302778D01*
X0122694Y0305333D02*
X0122694Y0299200D01*
X0118605Y0299200D02*
X0118605Y0303800D01*
X0118607Y0303878D01*
X0118613Y0303955D01*
X0118623Y0304032D01*
X0118636Y0304109D01*
X0118654Y0304184D01*
X0118675Y0304259D01*
X0118700Y0304332D01*
X0118729Y0304405D01*
X0118762Y0304475D01*
X0118798Y0304544D01*
X0118837Y0304611D01*
X0118880Y0304676D01*
X0118926Y0304738D01*
X0118975Y0304799D01*
X0119027Y0304856D01*
X0119082Y0304911D01*
X0119139Y0304963D01*
X0119200Y0305012D01*
X0119262Y0305058D01*
X0119327Y0305101D01*
X0119394Y0305140D01*
X0119463Y0305176D01*
X0119533Y0305209D01*
X0119606Y0305238D01*
X0119679Y0305263D01*
X0119754Y0305284D01*
X0119829Y0305302D01*
X0119906Y0305315D01*
X0119983Y0305325D01*
X0120060Y0305331D01*
X0120138Y0305333D01*
X0122694Y0305333D01*
X0115316Y0303800D02*
X0115316Y0300733D01*
X0115314Y0300658D01*
X0115309Y0300583D01*
X0115299Y0300508D01*
X0115287Y0300434D01*
X0115270Y0300361D01*
X0115250Y0300288D01*
X0115226Y0300217D01*
X0115199Y0300146D01*
X0115169Y0300078D01*
X0115135Y0300010D01*
X0115098Y0299945D01*
X0115058Y0299881D01*
X0115014Y0299820D01*
X0114968Y0299760D01*
X0114919Y0299704D01*
X0114867Y0299649D01*
X0114813Y0299597D01*
X0114756Y0299548D01*
X0114696Y0299502D01*
X0114635Y0299458D01*
X0114571Y0299418D01*
X0114506Y0299381D01*
X0114438Y0299347D01*
X0114370Y0299317D01*
X0114299Y0299290D01*
X0114228Y0299266D01*
X0114155Y0299246D01*
X0114082Y0299229D01*
X0114008Y0299217D01*
X0113933Y0299207D01*
X0113858Y0299202D01*
X0113783Y0299200D01*
X0111227Y0299200D01*
X0111227Y0308400D01*
X0111227Y0305333D02*
X0113783Y0305333D01*
X0113858Y0305331D01*
X0113933Y0305326D01*
X0114008Y0305316D01*
X0114082Y0305304D01*
X0114155Y0305287D01*
X0114228Y0305267D01*
X0114299Y0305243D01*
X0114370Y0305216D01*
X0114438Y0305186D01*
X0114506Y0305152D01*
X0114571Y0305115D01*
X0114635Y0305075D01*
X0114696Y0305031D01*
X0114756Y0304985D01*
X0114812Y0304936D01*
X0114867Y0304884D01*
X0114919Y0304829D01*
X0114968Y0304773D01*
X0115014Y0304713D01*
X0115058Y0304652D01*
X0115098Y0304588D01*
X0115135Y0304523D01*
X0115169Y0304455D01*
X0115199Y0304387D01*
X0115226Y0304316D01*
X0115250Y0304245D01*
X0115270Y0304172D01*
X0115287Y0304099D01*
X0115299Y0304025D01*
X0115309Y0303950D01*
X0115314Y0303875D01*
X0115316Y0303800D01*
X0107699Y0300733D02*
X0107699Y0308400D01*
X0103514Y0303289D02*
X0103514Y0300733D01*
X0103512Y0300658D01*
X0103507Y0300583D01*
X0103497Y0300508D01*
X0103485Y0300434D01*
X0103468Y0300361D01*
X0103448Y0300288D01*
X0103424Y0300217D01*
X0103397Y0300146D01*
X0103367Y0300078D01*
X0103333Y0300010D01*
X0103296Y0299945D01*
X0103256Y0299881D01*
X0103212Y0299820D01*
X0103166Y0299760D01*
X0103117Y0299704D01*
X0103065Y0299649D01*
X0103011Y0299597D01*
X0102954Y0299548D01*
X0102894Y0299502D01*
X0102833Y0299458D01*
X0102769Y0299418D01*
X0102704Y0299381D01*
X0102636Y0299347D01*
X0102568Y0299317D01*
X0102497Y0299290D01*
X0102426Y0299266D01*
X0102353Y0299246D01*
X0102280Y0299229D01*
X0102206Y0299217D01*
X0102131Y0299207D01*
X0102056Y0299202D01*
X0101981Y0299200D01*
X0099425Y0299200D01*
X0099425Y0302267D02*
X0103514Y0302267D01*
X0103513Y0303289D02*
X0103511Y0303378D01*
X0103505Y0303467D01*
X0103496Y0303556D01*
X0103482Y0303644D01*
X0103465Y0303731D01*
X0103443Y0303818D01*
X0103418Y0303904D01*
X0103390Y0303988D01*
X0103357Y0304071D01*
X0103321Y0304153D01*
X0103282Y0304233D01*
X0103239Y0304311D01*
X0103193Y0304387D01*
X0103143Y0304461D01*
X0103091Y0304533D01*
X0103035Y0304603D01*
X0102976Y0304670D01*
X0102914Y0304734D01*
X0102850Y0304796D01*
X0102783Y0304855D01*
X0102713Y0304911D01*
X0102641Y0304963D01*
X0102567Y0305013D01*
X0102491Y0305059D01*
X0102413Y0305102D01*
X0102333Y0305141D01*
X0102251Y0305177D01*
X0102168Y0305210D01*
X0102084Y0305238D01*
X0101998Y0305263D01*
X0101911Y0305285D01*
X0101824Y0305302D01*
X0101736Y0305316D01*
X0101647Y0305325D01*
X0101558Y0305331D01*
X0101469Y0305333D01*
X0101380Y0305331D01*
X0101291Y0305325D01*
X0101202Y0305316D01*
X0101114Y0305302D01*
X0101027Y0305285D01*
X0100940Y0305263D01*
X0100854Y0305238D01*
X0100770Y0305210D01*
X0100687Y0305177D01*
X0100605Y0305141D01*
X0100525Y0305102D01*
X0100447Y0305059D01*
X0100371Y0305013D01*
X0100297Y0304963D01*
X0100225Y0304911D01*
X0100155Y0304855D01*
X0100088Y0304796D01*
X0100024Y0304734D01*
X0099962Y0304670D01*
X0099903Y0304603D01*
X0099847Y0304533D01*
X0099795Y0304461D01*
X0099745Y0304387D01*
X0099699Y0304311D01*
X0099656Y0304233D01*
X0099617Y0304153D01*
X0099581Y0304071D01*
X0099548Y0303988D01*
X0099520Y0303904D01*
X0099495Y0303818D01*
X0099473Y0303731D01*
X0099456Y0303644D01*
X0099442Y0303556D01*
X0099433Y0303467D01*
X0099427Y0303378D01*
X0099425Y0303289D01*
X0099425Y0302267D01*
X0106165Y0299200D02*
X0106243Y0299202D01*
X0106320Y0299208D01*
X0106397Y0299218D01*
X0106474Y0299231D01*
X0106549Y0299249D01*
X0106624Y0299270D01*
X0106697Y0299295D01*
X0106770Y0299324D01*
X0106840Y0299357D01*
X0106909Y0299393D01*
X0106976Y0299432D01*
X0107041Y0299475D01*
X0107103Y0299521D01*
X0107164Y0299570D01*
X0107221Y0299622D01*
X0107276Y0299677D01*
X0107328Y0299734D01*
X0107377Y0299795D01*
X0107423Y0299857D01*
X0107466Y0299922D01*
X0107505Y0299989D01*
X0107541Y0300058D01*
X0107574Y0300128D01*
X0107603Y0300201D01*
X0107628Y0300274D01*
X0107649Y0300349D01*
X0107667Y0300424D01*
X0107680Y0300501D01*
X0107690Y0300578D01*
X0107696Y0300655D01*
X0107698Y0300733D01*
X0092206Y0305333D02*
X0090673Y0299200D01*
X0089139Y0303289D01*
X0087606Y0299200D01*
X0086073Y0305333D01*
X0083111Y0305333D02*
X0083111Y0299200D01*
X0079546Y0300733D02*
X0079546Y0308400D01*
X0080568Y0305333D02*
X0077501Y0305333D01*
X0074470Y0305333D02*
X0071914Y0305333D01*
X0071836Y0305331D01*
X0071759Y0305325D01*
X0071682Y0305315D01*
X0071605Y0305302D01*
X0071530Y0305284D01*
X0071455Y0305263D01*
X0071382Y0305238D01*
X0071309Y0305209D01*
X0071239Y0305176D01*
X0071170Y0305140D01*
X0071103Y0305101D01*
X0071038Y0305058D01*
X0070976Y0305012D01*
X0070915Y0304963D01*
X0070858Y0304911D01*
X0070803Y0304856D01*
X0070751Y0304799D01*
X0070702Y0304738D01*
X0070656Y0304676D01*
X0070613Y0304611D01*
X0070574Y0304544D01*
X0070538Y0304475D01*
X0070505Y0304405D01*
X0070476Y0304332D01*
X0070451Y0304259D01*
X0070430Y0304184D01*
X0070412Y0304109D01*
X0070399Y0304032D01*
X0070389Y0303955D01*
X0070383Y0303878D01*
X0070381Y0303800D01*
X0070381Y0299200D01*
X0074470Y0299200D02*
X0074470Y0308400D01*
X0082856Y0308400D02*
X0082856Y0307889D01*
X0083367Y0307889D01*
X0083367Y0308400D01*
X0082856Y0308400D01*
X0079545Y0300733D02*
X0079543Y0300655D01*
X0079537Y0300578D01*
X0079527Y0300501D01*
X0079514Y0300424D01*
X0079496Y0300349D01*
X0079475Y0300274D01*
X0079450Y0300201D01*
X0079421Y0300128D01*
X0079388Y0300058D01*
X0079352Y0299989D01*
X0079313Y0299922D01*
X0079270Y0299857D01*
X0079224Y0299795D01*
X0079175Y0299734D01*
X0079123Y0299677D01*
X0079068Y0299622D01*
X0079011Y0299570D01*
X0078950Y0299521D01*
X0078888Y0299475D01*
X0078823Y0299432D01*
X0078756Y0299393D01*
X0078687Y0299357D01*
X0078617Y0299324D01*
X0078544Y0299295D01*
X0078471Y0299270D01*
X0078396Y0299249D01*
X0078321Y0299231D01*
X0078244Y0299218D01*
X0078167Y0299208D01*
X0078090Y0299202D01*
X0078012Y0299200D01*
X0077501Y0299200D01*
X0062682Y0300733D02*
X0062682Y0303800D01*
X0062680Y0303875D01*
X0062675Y0303950D01*
X0062665Y0304025D01*
X0062653Y0304099D01*
X0062636Y0304172D01*
X0062616Y0304245D01*
X0062592Y0304316D01*
X0062565Y0304387D01*
X0062535Y0304455D01*
X0062501Y0304523D01*
X0062464Y0304588D01*
X0062424Y0304652D01*
X0062380Y0304713D01*
X0062334Y0304773D01*
X0062285Y0304829D01*
X0062233Y0304884D01*
X0062178Y0304936D01*
X0062122Y0304985D01*
X0062062Y0305031D01*
X0062001Y0305075D01*
X0061937Y0305115D01*
X0061872Y0305152D01*
X0061804Y0305186D01*
X0061736Y0305216D01*
X0061665Y0305243D01*
X0061594Y0305267D01*
X0061521Y0305287D01*
X0061448Y0305304D01*
X0061374Y0305316D01*
X0061299Y0305326D01*
X0061224Y0305331D01*
X0061149Y0305333D01*
X0059105Y0305333D01*
X0055895Y0305333D02*
X0053851Y0305333D01*
X0053776Y0305331D01*
X0053701Y0305326D01*
X0053626Y0305316D01*
X0053552Y0305304D01*
X0053479Y0305287D01*
X0053406Y0305267D01*
X0053335Y0305243D01*
X0053264Y0305216D01*
X0053196Y0305186D01*
X0053128Y0305152D01*
X0053063Y0305115D01*
X0052999Y0305075D01*
X0052938Y0305031D01*
X0052878Y0304985D01*
X0052822Y0304936D01*
X0052767Y0304884D01*
X0052715Y0304830D01*
X0052666Y0304773D01*
X0052620Y0304713D01*
X0052576Y0304652D01*
X0052536Y0304588D01*
X0052499Y0304523D01*
X0052465Y0304455D01*
X0052435Y0304387D01*
X0052408Y0304316D01*
X0052384Y0304245D01*
X0052364Y0304172D01*
X0052347Y0304099D01*
X0052335Y0304025D01*
X0052325Y0303950D01*
X0052320Y0303875D01*
X0052318Y0303800D01*
X0052317Y0303800D02*
X0052317Y0299200D01*
X0054617Y0299200D01*
X0054701Y0299202D01*
X0054785Y0299208D01*
X0054868Y0299218D01*
X0054951Y0299231D01*
X0055033Y0299249D01*
X0055114Y0299270D01*
X0055194Y0299296D01*
X0055272Y0299324D01*
X0055350Y0299357D01*
X0055425Y0299393D01*
X0055499Y0299433D01*
X0055571Y0299476D01*
X0055641Y0299522D01*
X0055709Y0299572D01*
X0055774Y0299625D01*
X0055837Y0299680D01*
X0055897Y0299739D01*
X0055954Y0299800D01*
X0056008Y0299864D01*
X0056059Y0299931D01*
X0056107Y0299999D01*
X0056152Y0300070D01*
X0056194Y0300143D01*
X0056231Y0300218D01*
X0056266Y0300295D01*
X0056297Y0300373D01*
X0056324Y0300452D01*
X0056347Y0300533D01*
X0056366Y0300614D01*
X0056382Y0300697D01*
X0056394Y0300780D01*
X0056402Y0300863D01*
X0056406Y0300947D01*
X0056406Y0301031D01*
X0056402Y0301115D01*
X0056394Y0301198D01*
X0056382Y0301281D01*
X0056366Y0301364D01*
X0056347Y0301445D01*
X0056324Y0301526D01*
X0056297Y0301605D01*
X0056266Y0301683D01*
X0056231Y0301760D01*
X0056194Y0301835D01*
X0056152Y0301908D01*
X0056107Y0301979D01*
X0056059Y0302047D01*
X0056008Y0302114D01*
X0055954Y0302178D01*
X0055897Y0302239D01*
X0055837Y0302298D01*
X0055774Y0302353D01*
X0055709Y0302406D01*
X0055641Y0302456D01*
X0055571Y0302502D01*
X0055499Y0302545D01*
X0055425Y0302585D01*
X0055350Y0302621D01*
X0055272Y0302654D01*
X0055194Y0302682D01*
X0055114Y0302708D01*
X0055033Y0302729D01*
X0054951Y0302747D01*
X0054868Y0302760D01*
X0054785Y0302770D01*
X0054701Y0302776D01*
X0054617Y0302778D01*
X0052317Y0302778D01*
X0048689Y0305333D02*
X0048689Y0299200D01*
X0045622Y0304311D02*
X0045622Y0305333D01*
X0048689Y0305333D01*
X0043234Y0303289D02*
X0043234Y0300733D01*
X0043232Y0300658D01*
X0043227Y0300583D01*
X0043217Y0300508D01*
X0043205Y0300434D01*
X0043188Y0300361D01*
X0043168Y0300288D01*
X0043144Y0300217D01*
X0043117Y0300146D01*
X0043087Y0300078D01*
X0043053Y0300010D01*
X0043016Y0299945D01*
X0042976Y0299881D01*
X0042932Y0299820D01*
X0042886Y0299760D01*
X0042837Y0299704D01*
X0042785Y0299649D01*
X0042731Y0299597D01*
X0042674Y0299548D01*
X0042614Y0299502D01*
X0042553Y0299458D01*
X0042489Y0299418D01*
X0042424Y0299381D01*
X0042356Y0299347D01*
X0042288Y0299317D01*
X0042217Y0299290D01*
X0042146Y0299266D01*
X0042073Y0299246D01*
X0042000Y0299229D01*
X0041926Y0299217D01*
X0041851Y0299207D01*
X0041776Y0299202D01*
X0041701Y0299200D01*
X0039145Y0299200D01*
X0039145Y0302267D02*
X0043234Y0302267D01*
X0043234Y0303289D02*
X0043232Y0303378D01*
X0043226Y0303467D01*
X0043217Y0303556D01*
X0043203Y0303644D01*
X0043186Y0303731D01*
X0043164Y0303818D01*
X0043139Y0303904D01*
X0043111Y0303988D01*
X0043078Y0304071D01*
X0043042Y0304153D01*
X0043003Y0304233D01*
X0042960Y0304311D01*
X0042914Y0304387D01*
X0042864Y0304461D01*
X0042812Y0304533D01*
X0042756Y0304603D01*
X0042697Y0304670D01*
X0042635Y0304734D01*
X0042571Y0304796D01*
X0042504Y0304855D01*
X0042434Y0304911D01*
X0042362Y0304963D01*
X0042288Y0305013D01*
X0042212Y0305059D01*
X0042134Y0305102D01*
X0042054Y0305141D01*
X0041972Y0305177D01*
X0041889Y0305210D01*
X0041805Y0305238D01*
X0041719Y0305263D01*
X0041632Y0305285D01*
X0041545Y0305302D01*
X0041457Y0305316D01*
X0041368Y0305325D01*
X0041279Y0305331D01*
X0041190Y0305333D01*
X0041101Y0305331D01*
X0041012Y0305325D01*
X0040923Y0305316D01*
X0040835Y0305302D01*
X0040748Y0305285D01*
X0040661Y0305263D01*
X0040575Y0305238D01*
X0040491Y0305210D01*
X0040408Y0305177D01*
X0040326Y0305141D01*
X0040246Y0305102D01*
X0040168Y0305059D01*
X0040092Y0305013D01*
X0040018Y0304963D01*
X0039946Y0304911D01*
X0039876Y0304855D01*
X0039809Y0304796D01*
X0039745Y0304734D01*
X0039683Y0304670D01*
X0039624Y0304603D01*
X0039568Y0304533D01*
X0039516Y0304461D01*
X0039466Y0304387D01*
X0039420Y0304311D01*
X0039377Y0304233D01*
X0039338Y0304153D01*
X0039302Y0304071D01*
X0039269Y0303988D01*
X0039241Y0303904D01*
X0039216Y0303818D01*
X0039194Y0303731D01*
X0039177Y0303644D01*
X0039163Y0303556D01*
X0039154Y0303467D01*
X0039148Y0303378D01*
X0039146Y0303289D01*
X0039145Y0303289D02*
X0039145Y0302267D01*
X0059105Y0299200D02*
X0061149Y0299200D01*
X0061224Y0299202D01*
X0061299Y0299207D01*
X0061374Y0299217D01*
X0061448Y0299229D01*
X0061521Y0299246D01*
X0061594Y0299266D01*
X0061665Y0299290D01*
X0061736Y0299317D01*
X0061804Y0299347D01*
X0061872Y0299381D01*
X0061937Y0299418D01*
X0062001Y0299458D01*
X0062062Y0299502D01*
X0062122Y0299548D01*
X0062179Y0299597D01*
X0062233Y0299649D01*
X0062285Y0299704D01*
X0062334Y0299760D01*
X0062380Y0299820D01*
X0062424Y0299881D01*
X0062464Y0299945D01*
X0062501Y0300010D01*
X0062535Y0300078D01*
X0062565Y0300146D01*
X0062592Y0300217D01*
X0062616Y0300288D01*
X0062636Y0300361D01*
X0062653Y0300434D01*
X0062665Y0300508D01*
X0062675Y0300583D01*
X0062680Y0300658D01*
X0062682Y0300733D01*
X0245411Y0301756D02*
X0247967Y0302778D01*
X0248033Y0302806D01*
X0248098Y0302839D01*
X0248161Y0302874D01*
X0248221Y0302913D01*
X0248280Y0302955D01*
X0248336Y0303001D01*
X0248389Y0303049D01*
X0248440Y0303100D01*
X0248488Y0303154D01*
X0248533Y0303210D01*
X0248575Y0303269D01*
X0248613Y0303330D01*
X0248649Y0303393D01*
X0248680Y0303458D01*
X0248708Y0303524D01*
X0248733Y0303592D01*
X0248754Y0303661D01*
X0248771Y0303731D01*
X0248784Y0303802D01*
X0248793Y0303873D01*
X0248799Y0303945D01*
X0248800Y0304017D01*
X0248798Y0304089D01*
X0248791Y0304161D01*
X0248781Y0304232D01*
X0248767Y0304303D01*
X0248749Y0304373D01*
X0248727Y0304442D01*
X0248702Y0304509D01*
X0248673Y0304575D01*
X0248640Y0304639D01*
X0248604Y0304702D01*
X0248564Y0304762D01*
X0248522Y0304820D01*
X0248476Y0304876D01*
X0248427Y0304929D01*
X0248376Y0304980D01*
X0248322Y0305027D01*
X0248265Y0305072D01*
X0248206Y0305113D01*
X0248145Y0305151D01*
X0248082Y0305186D01*
X0248017Y0305217D01*
X0247950Y0305245D01*
X0247882Y0305269D01*
X0247813Y0305289D01*
X0247743Y0305306D01*
X0247672Y0305318D01*
X0247600Y0305327D01*
X0247528Y0305332D01*
X0247456Y0305333D01*
X0248734Y0299711D02*
X0248540Y0299644D01*
X0248345Y0299581D01*
X0248148Y0299523D01*
X0247950Y0299470D01*
X0247751Y0299422D01*
X0247551Y0299378D01*
X0247350Y0299339D01*
X0247147Y0299305D01*
X0246945Y0299275D01*
X0246741Y0299250D01*
X0246537Y0299230D01*
X0246332Y0299215D01*
X0246128Y0299205D01*
X0245923Y0299200D01*
X0245922Y0299200D02*
X0245850Y0299201D01*
X0245778Y0299206D01*
X0245706Y0299215D01*
X0245635Y0299227D01*
X0245565Y0299244D01*
X0245496Y0299264D01*
X0245428Y0299288D01*
X0245361Y0299316D01*
X0245296Y0299347D01*
X0245233Y0299382D01*
X0245172Y0299420D01*
X0245113Y0299461D01*
X0245056Y0299506D01*
X0245002Y0299553D01*
X0244951Y0299604D01*
X0244902Y0299657D01*
X0244856Y0299713D01*
X0244814Y0299771D01*
X0244774Y0299831D01*
X0244738Y0299894D01*
X0244705Y0299958D01*
X0244676Y0300024D01*
X0244651Y0300091D01*
X0244629Y0300160D01*
X0244611Y0300230D01*
X0244597Y0300301D01*
X0244587Y0300372D01*
X0244580Y0300444D01*
X0244578Y0300516D01*
X0244579Y0300588D01*
X0244585Y0300660D01*
X0244594Y0300731D01*
X0244607Y0300802D01*
X0244624Y0300872D01*
X0244645Y0300941D01*
X0244670Y0301009D01*
X0244698Y0301075D01*
X0244729Y0301140D01*
X0244765Y0301203D01*
X0244803Y0301264D01*
X0244845Y0301323D01*
X0244890Y0301379D01*
X0244938Y0301433D01*
X0244989Y0301484D01*
X0245042Y0301532D01*
X0245098Y0301578D01*
X0245157Y0301620D01*
X0245217Y0301659D01*
X0245280Y0301694D01*
X0245345Y0301727D01*
X0245411Y0301755D01*
X0245156Y0304822D02*
X0245292Y0304881D01*
X0245430Y0304937D01*
X0245568Y0304989D01*
X0245709Y0305038D01*
X0245850Y0305083D01*
X0245992Y0305124D01*
X0246136Y0305162D01*
X0246280Y0305196D01*
X0246425Y0305226D01*
X0246571Y0305253D01*
X0246717Y0305276D01*
X0246865Y0305295D01*
X0247012Y0305310D01*
X0247160Y0305322D01*
X0247308Y0305329D01*
X0247456Y0305333D01*
X0252043Y0303800D02*
X0252043Y0299200D01*
X0256131Y0299200D02*
X0256131Y0305333D01*
X0253576Y0305333D01*
X0253498Y0305331D01*
X0253421Y0305325D01*
X0253344Y0305315D01*
X0253267Y0305302D01*
X0253192Y0305284D01*
X0253117Y0305263D01*
X0253044Y0305238D01*
X0252971Y0305209D01*
X0252901Y0305176D01*
X0252832Y0305140D01*
X0252765Y0305101D01*
X0252700Y0305058D01*
X0252638Y0305012D01*
X0252577Y0304963D01*
X0252520Y0304911D01*
X0252465Y0304856D01*
X0252413Y0304799D01*
X0252364Y0304738D01*
X0252318Y0304676D01*
X0252275Y0304611D01*
X0252236Y0304544D01*
X0252200Y0304475D01*
X0252167Y0304405D01*
X0252138Y0304332D01*
X0252113Y0304259D01*
X0252092Y0304184D01*
X0252074Y0304109D01*
X0252061Y0304032D01*
X0252051Y0303955D01*
X0252045Y0303878D01*
X0252043Y0303800D01*
X0259567Y0305333D02*
X0259567Y0299200D01*
X0263023Y0299200D02*
X0263023Y0303800D01*
X0263023Y0302778D02*
X0265323Y0302778D01*
X0263023Y0303800D02*
X0263025Y0303875D01*
X0263030Y0303950D01*
X0263040Y0304025D01*
X0263052Y0304099D01*
X0263069Y0304172D01*
X0263089Y0304245D01*
X0263113Y0304316D01*
X0263140Y0304387D01*
X0263170Y0304455D01*
X0263204Y0304523D01*
X0263241Y0304588D01*
X0263281Y0304652D01*
X0263325Y0304713D01*
X0263371Y0304773D01*
X0263420Y0304830D01*
X0263472Y0304884D01*
X0263527Y0304936D01*
X0263583Y0304985D01*
X0263643Y0305031D01*
X0263704Y0305075D01*
X0263768Y0305115D01*
X0263833Y0305152D01*
X0263901Y0305186D01*
X0263969Y0305216D01*
X0264040Y0305243D01*
X0264111Y0305267D01*
X0264184Y0305287D01*
X0264257Y0305304D01*
X0264331Y0305316D01*
X0264406Y0305326D01*
X0264481Y0305331D01*
X0264556Y0305333D01*
X0266600Y0305333D01*
X0269849Y0305333D02*
X0272915Y0305333D01*
X0275606Y0303800D02*
X0275606Y0299200D01*
X0271893Y0300733D02*
X0271893Y0308400D01*
X0277140Y0305333D02*
X0279695Y0305333D01*
X0279695Y0299200D01*
X0283004Y0301244D02*
X0283004Y0303289D01*
X0283005Y0303289D02*
X0283007Y0303378D01*
X0283013Y0303467D01*
X0283022Y0303556D01*
X0283036Y0303644D01*
X0283053Y0303731D01*
X0283075Y0303818D01*
X0283100Y0303904D01*
X0283128Y0303988D01*
X0283161Y0304071D01*
X0283197Y0304153D01*
X0283236Y0304233D01*
X0283279Y0304311D01*
X0283325Y0304387D01*
X0283375Y0304461D01*
X0283427Y0304533D01*
X0283483Y0304603D01*
X0283542Y0304670D01*
X0283604Y0304734D01*
X0283668Y0304796D01*
X0283735Y0304855D01*
X0283805Y0304911D01*
X0283877Y0304963D01*
X0283951Y0305013D01*
X0284027Y0305059D01*
X0284105Y0305102D01*
X0284185Y0305141D01*
X0284267Y0305177D01*
X0284350Y0305210D01*
X0284434Y0305238D01*
X0284520Y0305263D01*
X0284607Y0305285D01*
X0284694Y0305302D01*
X0284782Y0305316D01*
X0284871Y0305325D01*
X0284960Y0305331D01*
X0285049Y0305333D01*
X0285138Y0305331D01*
X0285227Y0305325D01*
X0285316Y0305316D01*
X0285404Y0305302D01*
X0285491Y0305285D01*
X0285578Y0305263D01*
X0285664Y0305238D01*
X0285748Y0305210D01*
X0285831Y0305177D01*
X0285913Y0305141D01*
X0285993Y0305102D01*
X0286071Y0305059D01*
X0286147Y0305013D01*
X0286221Y0304963D01*
X0286293Y0304911D01*
X0286363Y0304855D01*
X0286430Y0304796D01*
X0286494Y0304734D01*
X0286556Y0304670D01*
X0286615Y0304603D01*
X0286671Y0304533D01*
X0286723Y0304461D01*
X0286773Y0304387D01*
X0286819Y0304311D01*
X0286862Y0304233D01*
X0286901Y0304153D01*
X0286937Y0304071D01*
X0286970Y0303988D01*
X0286998Y0303904D01*
X0287023Y0303818D01*
X0287045Y0303731D01*
X0287062Y0303644D01*
X0287076Y0303556D01*
X0287085Y0303467D01*
X0287091Y0303378D01*
X0287093Y0303289D01*
X0287093Y0301244D01*
X0287091Y0301155D01*
X0287085Y0301066D01*
X0287076Y0300977D01*
X0287062Y0300889D01*
X0287045Y0300802D01*
X0287023Y0300715D01*
X0286998Y0300629D01*
X0286970Y0300545D01*
X0286937Y0300462D01*
X0286901Y0300380D01*
X0286862Y0300300D01*
X0286819Y0300222D01*
X0286773Y0300146D01*
X0286723Y0300072D01*
X0286671Y0300000D01*
X0286615Y0299930D01*
X0286556Y0299863D01*
X0286494Y0299799D01*
X0286430Y0299737D01*
X0286363Y0299678D01*
X0286293Y0299622D01*
X0286221Y0299570D01*
X0286147Y0299520D01*
X0286071Y0299474D01*
X0285993Y0299431D01*
X0285913Y0299392D01*
X0285831Y0299356D01*
X0285748Y0299323D01*
X0285664Y0299295D01*
X0285578Y0299270D01*
X0285491Y0299248D01*
X0285404Y0299231D01*
X0285316Y0299217D01*
X0285227Y0299208D01*
X0285138Y0299202D01*
X0285049Y0299200D01*
X0284960Y0299202D01*
X0284871Y0299208D01*
X0284782Y0299217D01*
X0284694Y0299231D01*
X0284607Y0299248D01*
X0284520Y0299270D01*
X0284434Y0299295D01*
X0284350Y0299323D01*
X0284267Y0299356D01*
X0284185Y0299392D01*
X0284105Y0299431D01*
X0284027Y0299474D01*
X0283951Y0299520D01*
X0283877Y0299570D01*
X0283805Y0299622D01*
X0283735Y0299678D01*
X0283668Y0299737D01*
X0283604Y0299799D01*
X0283542Y0299863D01*
X0283483Y0299930D01*
X0283427Y0300000D01*
X0283375Y0300072D01*
X0283325Y0300146D01*
X0283279Y0300222D01*
X0283236Y0300300D01*
X0283197Y0300380D01*
X0283161Y0300462D01*
X0283128Y0300545D01*
X0283100Y0300629D01*
X0283075Y0300715D01*
X0283053Y0300802D01*
X0283036Y0300889D01*
X0283022Y0300977D01*
X0283013Y0301066D01*
X0283007Y0301155D01*
X0283005Y0301244D01*
X0277140Y0305333D02*
X0277062Y0305331D01*
X0276985Y0305325D01*
X0276908Y0305315D01*
X0276831Y0305302D01*
X0276756Y0305284D01*
X0276681Y0305263D01*
X0276608Y0305238D01*
X0276535Y0305209D01*
X0276465Y0305176D01*
X0276396Y0305140D01*
X0276329Y0305101D01*
X0276264Y0305058D01*
X0276202Y0305012D01*
X0276141Y0304963D01*
X0276084Y0304911D01*
X0276029Y0304856D01*
X0275977Y0304799D01*
X0275928Y0304738D01*
X0275882Y0304676D01*
X0275839Y0304611D01*
X0275800Y0304544D01*
X0275764Y0304475D01*
X0275731Y0304405D01*
X0275702Y0304332D01*
X0275677Y0304259D01*
X0275656Y0304184D01*
X0275638Y0304109D01*
X0275625Y0304032D01*
X0275615Y0303955D01*
X0275609Y0303878D01*
X0275607Y0303800D01*
X0271893Y0300733D02*
X0271891Y0300655D01*
X0271885Y0300578D01*
X0271875Y0300501D01*
X0271862Y0300424D01*
X0271844Y0300349D01*
X0271823Y0300274D01*
X0271798Y0300201D01*
X0271769Y0300128D01*
X0271736Y0300058D01*
X0271700Y0299989D01*
X0271661Y0299922D01*
X0271618Y0299857D01*
X0271572Y0299795D01*
X0271523Y0299734D01*
X0271471Y0299677D01*
X0271416Y0299622D01*
X0271359Y0299570D01*
X0271298Y0299521D01*
X0271236Y0299475D01*
X0271171Y0299432D01*
X0271104Y0299393D01*
X0271035Y0299357D01*
X0270965Y0299324D01*
X0270892Y0299295D01*
X0270819Y0299270D01*
X0270744Y0299249D01*
X0270669Y0299231D01*
X0270592Y0299218D01*
X0270515Y0299208D01*
X0270438Y0299202D01*
X0270360Y0299200D01*
X0269849Y0299200D01*
X0265323Y0299200D02*
X0263023Y0299200D01*
X0265323Y0299200D02*
X0265407Y0299202D01*
X0265491Y0299208D01*
X0265574Y0299218D01*
X0265657Y0299231D01*
X0265739Y0299249D01*
X0265820Y0299270D01*
X0265900Y0299296D01*
X0265978Y0299324D01*
X0266056Y0299357D01*
X0266131Y0299393D01*
X0266205Y0299433D01*
X0266277Y0299476D01*
X0266347Y0299522D01*
X0266415Y0299572D01*
X0266480Y0299625D01*
X0266543Y0299680D01*
X0266603Y0299739D01*
X0266660Y0299800D01*
X0266714Y0299864D01*
X0266765Y0299931D01*
X0266813Y0299999D01*
X0266858Y0300070D01*
X0266900Y0300143D01*
X0266937Y0300218D01*
X0266972Y0300295D01*
X0267003Y0300373D01*
X0267030Y0300452D01*
X0267053Y0300533D01*
X0267072Y0300614D01*
X0267088Y0300697D01*
X0267100Y0300780D01*
X0267108Y0300863D01*
X0267112Y0300947D01*
X0267112Y0301031D01*
X0267108Y0301115D01*
X0267100Y0301198D01*
X0267088Y0301281D01*
X0267072Y0301364D01*
X0267053Y0301445D01*
X0267030Y0301526D01*
X0267003Y0301605D01*
X0266972Y0301683D01*
X0266937Y0301760D01*
X0266900Y0301835D01*
X0266858Y0301908D01*
X0266813Y0301979D01*
X0266765Y0302047D01*
X0266714Y0302114D01*
X0266660Y0302178D01*
X0266603Y0302239D01*
X0266543Y0302298D01*
X0266480Y0302353D01*
X0266415Y0302406D01*
X0266347Y0302456D01*
X0266277Y0302502D01*
X0266205Y0302545D01*
X0266131Y0302585D01*
X0266056Y0302621D01*
X0265978Y0302654D01*
X0265900Y0302682D01*
X0265820Y0302708D01*
X0265739Y0302729D01*
X0265657Y0302747D01*
X0265574Y0302760D01*
X0265491Y0302770D01*
X0265407Y0302776D01*
X0265323Y0302778D01*
X0259822Y0307889D02*
X0259311Y0307889D01*
X0259311Y0308400D01*
X0259822Y0308400D01*
X0259822Y0307889D01*
X0289812Y0305333D02*
X0291856Y0305333D01*
X0291931Y0305331D01*
X0292006Y0305326D01*
X0292081Y0305316D01*
X0292155Y0305304D01*
X0292228Y0305287D01*
X0292301Y0305267D01*
X0292372Y0305243D01*
X0292443Y0305216D01*
X0292511Y0305186D01*
X0292579Y0305152D01*
X0292644Y0305115D01*
X0292708Y0305075D01*
X0292769Y0305031D01*
X0292829Y0304985D01*
X0292885Y0304936D01*
X0292940Y0304884D01*
X0292992Y0304829D01*
X0293041Y0304773D01*
X0293087Y0304713D01*
X0293131Y0304652D01*
X0293171Y0304588D01*
X0293208Y0304523D01*
X0293242Y0304455D01*
X0293272Y0304387D01*
X0293299Y0304316D01*
X0293323Y0304245D01*
X0293343Y0304172D01*
X0293360Y0304099D01*
X0293372Y0304025D01*
X0293382Y0303950D01*
X0293387Y0303875D01*
X0293389Y0303800D01*
X0293390Y0303800D02*
X0293390Y0300733D01*
X0293389Y0300733D02*
X0293387Y0300658D01*
X0293382Y0300583D01*
X0293372Y0300508D01*
X0293360Y0300434D01*
X0293343Y0300361D01*
X0293323Y0300288D01*
X0293299Y0300217D01*
X0293272Y0300146D01*
X0293242Y0300078D01*
X0293208Y0300010D01*
X0293171Y0299945D01*
X0293131Y0299881D01*
X0293087Y0299820D01*
X0293041Y0299760D01*
X0292992Y0299704D01*
X0292940Y0299649D01*
X0292886Y0299597D01*
X0292829Y0299548D01*
X0292769Y0299502D01*
X0292708Y0299458D01*
X0292644Y0299418D01*
X0292579Y0299381D01*
X0292511Y0299347D01*
X0292443Y0299317D01*
X0292372Y0299290D01*
X0292301Y0299266D01*
X0292228Y0299246D01*
X0292155Y0299229D01*
X0292081Y0299217D01*
X0292006Y0299207D01*
X0291931Y0299202D01*
X0291856Y0299200D01*
X0289812Y0299200D01*
X0300959Y0299967D02*
X0301470Y0299967D01*
X0301470Y0300478D01*
X0300959Y0300478D01*
X0300959Y0299967D01*
X0304961Y0299200D02*
X0304961Y0304311D01*
X0306495Y0304311D01*
X0310072Y0306356D02*
X0310070Y0306445D01*
X0310064Y0306534D01*
X0310055Y0306623D01*
X0310041Y0306711D01*
X0310024Y0306798D01*
X0310002Y0306885D01*
X0309977Y0306971D01*
X0309949Y0307055D01*
X0309916Y0307138D01*
X0309880Y0307220D01*
X0309841Y0307300D01*
X0309798Y0307378D01*
X0309752Y0307454D01*
X0309702Y0307528D01*
X0309650Y0307600D01*
X0309594Y0307670D01*
X0309535Y0307737D01*
X0309473Y0307801D01*
X0309409Y0307863D01*
X0309342Y0307922D01*
X0309272Y0307978D01*
X0309200Y0308030D01*
X0309126Y0308080D01*
X0309050Y0308126D01*
X0308972Y0308169D01*
X0308892Y0308208D01*
X0308810Y0308244D01*
X0308727Y0308277D01*
X0308643Y0308305D01*
X0308557Y0308330D01*
X0308470Y0308352D01*
X0308383Y0308369D01*
X0308295Y0308383D01*
X0308206Y0308392D01*
X0308117Y0308398D01*
X0308028Y0308400D01*
X0304961Y0308400D01*
X0301470Y0304567D02*
X0300959Y0304567D01*
X0300959Y0304056D01*
X0301470Y0304056D01*
X0301470Y0304567D01*
X0304961Y0299200D02*
X0308028Y0299200D01*
X0308117Y0299202D01*
X0308206Y0299208D01*
X0308295Y0299217D01*
X0308383Y0299231D01*
X0308470Y0299248D01*
X0308557Y0299270D01*
X0308643Y0299295D01*
X0308727Y0299323D01*
X0308810Y0299356D01*
X0308892Y0299392D01*
X0308972Y0299431D01*
X0309050Y0299474D01*
X0309126Y0299520D01*
X0309200Y0299570D01*
X0309272Y0299622D01*
X0309342Y0299678D01*
X0309409Y0299737D01*
X0309473Y0299799D01*
X0309535Y0299863D01*
X0309594Y0299930D01*
X0309650Y0300000D01*
X0309702Y0300072D01*
X0309752Y0300146D01*
X0309798Y0300222D01*
X0309841Y0300300D01*
X0309880Y0300380D01*
X0309916Y0300462D01*
X0309949Y0300545D01*
X0309977Y0300629D01*
X0310002Y0300715D01*
X0310024Y0300802D01*
X0310041Y0300889D01*
X0310055Y0300977D01*
X0310064Y0301066D01*
X0310070Y0301155D01*
X0310072Y0301244D01*
X0310072Y0306356D01*
X0313729Y0308400D02*
X0313729Y0299200D01*
X0318840Y0308400D01*
X0318840Y0299200D01*
X0322113Y0299200D02*
X0324157Y0299200D01*
X0323135Y0299200D02*
X0323135Y0308400D01*
X0324157Y0308400D02*
X0322113Y0308400D01*
X0327429Y0308400D02*
X0327429Y0299200D01*
X0332540Y0308400D01*
X0332540Y0299200D01*
X0335898Y0299200D02*
X0337942Y0303289D01*
X0338454Y0303289D02*
X0341009Y0303289D01*
X0338454Y0303288D02*
X0338354Y0303290D01*
X0338253Y0303296D01*
X0338154Y0303306D01*
X0338054Y0303319D01*
X0337955Y0303337D01*
X0337857Y0303359D01*
X0337760Y0303384D01*
X0337664Y0303413D01*
X0337569Y0303446D01*
X0337476Y0303483D01*
X0337384Y0303523D01*
X0337294Y0303567D01*
X0337205Y0303614D01*
X0337118Y0303665D01*
X0337034Y0303719D01*
X0336952Y0303776D01*
X0336872Y0303837D01*
X0336794Y0303900D01*
X0336719Y0303967D01*
X0336647Y0304037D01*
X0336577Y0304109D01*
X0336510Y0304184D01*
X0336447Y0304262D01*
X0336386Y0304342D01*
X0336329Y0304424D01*
X0336275Y0304508D01*
X0336224Y0304595D01*
X0336177Y0304684D01*
X0336133Y0304774D01*
X0336093Y0304866D01*
X0336056Y0304959D01*
X0336023Y0305054D01*
X0335994Y0305150D01*
X0335969Y0305247D01*
X0335947Y0305345D01*
X0335929Y0305444D01*
X0335916Y0305544D01*
X0335906Y0305643D01*
X0335900Y0305744D01*
X0335898Y0305844D01*
X0335900Y0305944D01*
X0335906Y0306045D01*
X0335916Y0306144D01*
X0335929Y0306244D01*
X0335947Y0306343D01*
X0335969Y0306441D01*
X0335994Y0306538D01*
X0336023Y0306634D01*
X0336056Y0306729D01*
X0336093Y0306822D01*
X0336133Y0306914D01*
X0336177Y0307004D01*
X0336224Y0307093D01*
X0336275Y0307180D01*
X0336329Y0307264D01*
X0336386Y0307346D01*
X0336447Y0307426D01*
X0336510Y0307504D01*
X0336577Y0307579D01*
X0336647Y0307651D01*
X0336719Y0307721D01*
X0336794Y0307788D01*
X0336872Y0307851D01*
X0336952Y0307912D01*
X0337034Y0307969D01*
X0337118Y0308023D01*
X0337205Y0308074D01*
X0337294Y0308121D01*
X0337384Y0308165D01*
X0337476Y0308205D01*
X0337569Y0308242D01*
X0337664Y0308275D01*
X0337760Y0308304D01*
X0337857Y0308329D01*
X0337955Y0308351D01*
X0338054Y0308369D01*
X0338154Y0308382D01*
X0338253Y0308392D01*
X0338354Y0308398D01*
X0338454Y0308400D01*
X0341009Y0308400D01*
X0341009Y0299200D01*
X0343906Y0299200D02*
X0346973Y0308400D01*
X0350039Y0299200D01*
X0349273Y0301500D02*
X0344673Y0301500D01*
X0354244Y0299200D02*
X0352200Y0308400D01*
X0356289Y0305333D02*
X0354244Y0299200D01*
X0358333Y0299200D02*
X0356289Y0305333D01*
X0360378Y0308400D02*
X0358333Y0299200D01*
M02*
